<?xml version="1.0" standalone="no"?>
<!DOCTYPE svg PUBLIC "-//W3C//DTD SVG 1.1//EN" "http://www.w3.org/Graphics/SVG/1.1/DTD/svg11.dtd" >
<svg xmlns="http://www.w3.org/2000/svg">
<metadata>Generated by IcoMoon</metadata>
<defs>
<font id="icomoon" horiz-adv-x="1024">
<font-face units-per-em="1024" ascent="960" descent="-64" />
<missing-glyph horiz-adv-x="1024" />
<glyph unicode="&#x20;" horiz-adv-x="512" d="" />
<glyph unicode="&#xe900;" d="M773.388 874.596c-55.434 55.116-128.778 85.404-206.702 85.404-0.574 0-1.152-0.002-1.728-0.004-160.796-0.924-291.61-133.876-291.61-296.372v-72.644c0-8.71 7.060-15.77 15.77-15.77h84.106c8.71 0 15.77 7.060 15.77 15.77v73.23c0 98.386 78.918 179.194 175.92 180.134 47.764 0.374 92.722-17.822 126.712-51.482 33.998-33.67 52.72-78.482 52.72-126.186v-150.386c0-31.328 25-57.702 55.732-58.792 0.71-0.026 1.418-0.038 2.126-0.038 15.062 0 29.238 5.712 40.118 16.214 11.394 10.996 17.67 25.774 17.67 41.61v151.392c0 78.552-30.756 152.39-86.604 207.92z" />
<glyph unicode="&#xe901;" d="M817.938 583.624c-8.71 0-15.77 7.060-15.77 15.77v67.284c0 36.008-7.87 70.48-23.39 102.454-3.804 7.834-0.534 17.27 7.3 21.072 7.836 3.806 17.272 0.534 21.072-7.3 17.62-36.302 26.554-75.406 26.554-116.226v-67.284c0.004-8.712-7.056-15.77-15.766-15.77z" />
<glyph unicode="&#xe902;" d="M743.736 829.004c-4.020 0-8.042 1.528-11.118 4.588-16.578 16.482-35.292 30.336-55.616 41.172-33.634 17.934-71.778 27.412-110.314 27.412-8.71 0-15.77 7.060-15.77 15.77s7.060 15.77 15.77 15.77c43.692 0 86.97-10.762 125.156-31.122 23.048-12.288 44.248-27.98 63.014-46.638 6.176-6.142 6.204-16.126 0.064-22.304-3.086-3.096-7.134-4.648-11.186-4.648z" />
<glyph unicode="&#xe903;" d="M865.248 531.056h-597.158c-43.48 0-78.85-35.372-78.85-78.85v-500.436c0-8.71 7.060-15.77 15.77-15.77h723.318c8.71 0 15.77 7.060 15.77 15.77v500.436c0 43.478-35.37 78.85-78.85 78.85z" />
<glyph unicode="&#xe904;" d="M268.090 531.056c-43.48 0-78.85-35.372-78.85-78.85v-500.436c0-8.71 7.060-15.77 15.77-15.77h361.66v595.056h-298.58z" />
<glyph unicode="&#xe905;" d="M595.156 259.434c45.928 12.542 79.8 54.608 79.8 104.458 0 59.71-48.578 108.288-108.288 108.288s-108.288-48.578-108.288-108.288c0-49.85 33.872-91.916 79.8-104.458-78.644-13.566-138.676-82.224-138.676-164.684v-84.106c0-8.71 7.060-15.77 15.77-15.77h302.784c8.71 0 15.77 7.060 15.77 15.77v84.106c0.004 82.46-60.028 151.118-138.672 164.684z" />
<glyph unicode="&#xe906;" d="M458.382 363.894c0-49.85 33.872-91.916 79.8-104.458-78.644-13.566-138.676-82.224-138.676-164.684v-84.106c0-8.71 7.060-15.77 15.77-15.77h151.392v477.304c-59.708 0-108.286-48.578-108.286-108.286z" />
<glyph unicode="&#xe907;" d="M161.092 577.85h-65.42c-8.71 0-15.77 7.060-15.77 15.77s7.060 15.77 15.77 15.77h65.42c8.71 0 15.77-7.060 15.77-15.77s-7.060-15.77-15.77-15.77z" />
<glyph unicode="&#xe908;" d="M179.356 631.376c-4.036 0-8.072 1.54-11.15 4.62l-41.63 41.63c-6.158 6.158-6.158 16.144 0 22.304s16.144 6.158 22.3 0l41.63-41.63c6.158-6.158 6.158-16.144 0-22.304-3.078-3.080-7.116-4.62-11.15-4.62z" />
<glyph unicode="&#xe909;" d="M137.302 482.694c-4.036 0-8.072 1.54-11.15 4.62-6.158 6.158-6.158 16.144 0 22.3l41.63 41.63c6.158 6.158 16.144 6.158 22.3 0 6.158-6.158 6.158-16.144 0-22.3l-41.63-41.63c-3.078-3.080-7.114-4.62-11.15-4.62z" />
<glyph unicode="&#xe90a;" d="M1024 448c0-282.77-229.23-512-512-512s-512 229.23-512 512c0 282.77 229.23 512 512 512s512-229.23 512-512z" />
<glyph unicode="&#xe90b;" d="M100.775 144.863c93.257-126.578 243.2-208.863 412.444-208.863s319.187 82.286 412.444 208.863h-824.889z" />
<glyph unicode="&#xe90c;" d="M246.857 522.565v0c-4.47 0-8.127 3.657-8.127 8.127v20.724c0 4.47 3.657 8.127 8.127 8.127v0c4.47 0 8.127-3.657 8.127-8.127v-20.724c0-4.47-3.657-8.127-8.127-8.127z" />
<glyph unicode="&#xe90d;" d="M289.321 496.559c0-23.003-18.648-41.651-41.651-41.651s-41.651 18.648-41.651 41.651c0 23.003 18.648 41.651 41.651 41.651s41.651-18.648 41.651-41.651z" />
<glyph unicode="&#xe90e;" d="M730.819 576l-26.006 10.362-80.863 31.492-38.603-30.070-38.603 30.070-107.073-41.854-55.467-102.603h402.286z" />
<glyph unicode="&#xe90f;" d="M466.083 586.362v-112.965h107.276l-64.61 129.625z" />
<glyph unicode="&#xe910;" d="M704.61 586.362v-112.965h-107.479l64.61 129.625z" />
<glyph unicode="&#xe911;" d="M643.657 692.622c0-32.204-26.107-58.311-58.311-58.311s-58.311 26.107-58.311 58.311c0 32.204 26.107 58.311 58.311 58.311s58.311-26.107 58.311-58.311z" />
<glyph unicode="&#xe912;" d="M795.225 145.473h-564.216l-32.508 275.505h629.232z" />
<glyph unicode="&#xe913;" d="M157.054 485.79h712.127v-64.813h-712.127v64.813z" />
<glyph unicode="&#xe914;" d="M1024 448c0-282.77-229.23-512-512-512s-512 229.23-512 512c0 282.77 229.23 512 512 512s512-229.23 512-512z" />
<glyph unicode="&#xe915;" d="M594.895 733.46h-165.79l9.956 41.448c2.438 10.362 11.784 17.676 22.552 17.676h100.978c10.768 0 19.911-7.314 22.552-17.676l9.752-41.448z" />
<glyph unicode="&#xe916;" d="M820.013 628.825v-59.937c36.368 1.422 64.813 14.222 64.813 30.070s-28.648 28.444-64.813 29.867z" />
<glyph unicode="&#xe917;" d="M884.622 598.756c0-0.406 0-1.016 0-1.422l-0.203-1.422c-3.251-14.425-30.273-25.803-64.406-27.022h-48.152v11.175c18.489-0.61 34.54 0.61 48.152 2.844 34.743 5.486 54.248 17.473 62.171 23.771 1.625-2.438 2.438-5.079 2.438-7.924z" />
<glyph unicode="&#xe918;" d="M203.987 628.825v-59.937c-36.368 1.422-64.813 14.222-64.813 30.070s28.648 28.444 64.813 29.867z" />
<glyph unicode="&#xe919;" d="M139.378 598.756c0-0.406 0-1.016 0-1.422l0.203-1.422c3.251-14.425 30.273-25.803 64.406-27.022h48.152v11.175c-18.489-0.61-34.54 0.61-48.152 2.844-34.743 5.486-54.248 17.473-62.171 23.771-1.625-2.438-2.438-5.079-2.438-7.924z" />
<glyph unicode="&#xe91a;" d="M843.581 331.784h-72.127c-2.641 0-4.673-2.032-4.673-4.673v-131.86c0-2.641 2.032-4.673 4.673-4.673h72.127c2.641 0 4.673 2.032 4.673 4.673v131.86c0.203 2.438-2.032 4.673-4.673 4.673z" />
<glyph unicode="&#xe91b;" d="M252.343 331.784h-71.924c-2.641 0-4.673-2.032-4.673-4.673v-131.86c0-2.641 2.032-4.673 4.673-4.673h72.127c2.641 0 4.673 2.032 4.673 4.673v131.86c0 2.438-2.235 4.673-4.876 4.673z" />
<glyph unicode="&#xe91c;" d="M854.349 302.933v161.93c-5.079 4.063-23.365 38.806-23.365 38.806-27.429 118.248-110.121 225.117-110.121 225.117-39.416 6.705-143.238 8.94-196.673 9.752v0.203c-3.251 0-7.314 0-12.19-0.203-4.876 0-8.94 0.203-12.19 0.203v-0.203c-53.232-0.813-157.257-3.048-196.673-9.752 0 0-82.489-106.87-110.121-225.117 0 0-18.286-34.54-23.365-38.806v-161.93c0 0-12.19-61.156 80.457-64.203h523.581c92.851 3.048 80.66 64.203 80.66 64.203z" />
<glyph unicode="&#xe91d;" d="M709.079 342.552c0 0 44.495 31.289 94.883 18.286 0 0 10.565-20.724 13.613-42.463 3.454-24.584-14.832-46.933-39.416-49.168l-29.46-2.844-39.619 76.19z" />
<glyph unicode="&#xe91e;" d="M306.387 342.552l-39.416-76.19-29.46 2.844c-6.705 0.61-13.003 2.844-18.489 6.095-14.425 8.737-23.365 25.397-20.927 43.073 0.203 1.422 0.406 2.844 0.61 4.267 3.657 20.114 12.8 38.197 12.8 38.197 50.387 13.003 94.883-18.286 94.883-18.286z" />
<glyph unicode="&#xe91f;" d="M709.079 238.73l-59.53 114.997h-275.098l-59.53-114.997z" />
<glyph unicode="&#xe920;" d="M824.889 487.619c0 0-56.483-39.416-312.889-39.010-256.406-0.406-312.889 39.010-312.889 39.010l-5.486-41.651c33.524-35.352 94.883-46.121 94.883-46.121l19.302 15.441c37.181-22.756 155.225-30.883 204.19-33.524 48.965 2.438 167.010 10.768 204.19 33.524l19.302-15.441c0 0 61.562 10.768 94.883 46.121l-5.486 41.651z" />
<glyph unicode="&#xe921;" d="M827.733 515.657l-21.943 10.159-36.571-26.819 33.321 87.975c9.956-22.552 18.692-46.527 25.194-71.314z" />
<glyph unicode="&#xe922;" d="M254.578 498.997l-36.571 26.819-21.943-10.159c6.502 24.584 15.238 48.762 24.99 71.314l33.524-87.975z" />
<glyph unicode="&#xe923;" d="M693.841 456.94l-23.975-57.498c-50.997-11.175-122.514-16.051-158.070-17.676-35.352 1.829-107.073 6.705-158.070 17.676l-23.771 57.498c44.902-5.079 104.229-8.533 181.841-8.33 77.816-0.203 137.143 3.454 182.044 8.33z" />
<glyph unicode="&#xe924;" d="M551.619 415.695c0-11.333-17.738-20.521-39.619-20.521s-39.619 9.187-39.619 20.521c0 11.333 17.738 20.521 39.619 20.521s39.619-9.187 39.619-20.521z" />
<glyph unicode="&#xe925;" d="M631.060 735.695l-7.111-13.613h-223.898l-7.111 13.613c38.603 1.625 79.441 2.438 106.87 2.844v0.203c3.251 0 7.314 0 12.19-0.203 4.876 0 8.94 0.203 12.19 0.203v-0.203c27.429-0.406 68.267-1.219 106.87-2.844z" />
<glyph unicode="&#xe926;" d="M772.267 432.965c0-12.455-10.097-22.552-22.552-22.552s-22.552 10.097-22.552 22.552c0 12.455 10.097 22.552 22.552 22.552s22.552-10.097 22.552-22.552z" />
<glyph unicode="&#xe927;" d="M810.463 449.625c0-8.191-6.64-14.832-14.832-14.832s-14.832 6.64-14.832 14.832c0 8.191 6.64 14.832 14.832 14.832s14.832-6.64 14.832-14.832z" />
<glyph unicode="&#xe928;" d="M296.838 433.981c0-12.455-10.097-22.552-22.552-22.552s-22.552 10.097-22.552 22.552c0 12.455 10.097 22.552 22.552 22.552s22.552-10.097 22.552-22.552z" />
<glyph unicode="&#xe929;" d="M243.2 450.438c0-8.191-6.64-14.832-14.832-14.832s-14.832 6.64-14.832 14.832c0 8.191 6.64 14.832 14.832 14.832s14.832-6.64 14.832-14.832z" />
<glyph unicode="&#xe92a;" d="M475.225 773.486v-27.632h-7.721v27.632h-9.752v6.705h27.022v-6.705h-9.549z" />
<glyph unicode="&#xe92b;" d="M512.406 745.854l-3.251 7.314h-14.425l-3.251-7.314h-8.127l14.832 34.133h7.314l14.832-34.133c0 0-7.924 0-7.924 0zM502.044 770.032l-4.267-9.956h8.533l-4.267 9.956z" />
<glyph unicode="&#xe92c;" d="M543.695 780.19h9.143l-10.565-16.457 11.581-17.676h-9.346l-7.314 11.175-7.314-11.175h-9.143l11.581 17.473-10.768 16.66h9.143l6.502-10.159 6.502 10.159z" />
<glyph unicode="&#xe92d;" d="M558.527 780.19h7.721v-34.133h-7.721v34.133z" />
<glyph unicode="&#xe92e;" d="M416.102 328.33h191.797v-67.454h-191.797v67.454z" />
<glyph unicode="&#xe92f;" d="M787.505 583.111l-71.517 126.171c-1.219 2.032-3.454 3.251-5.892 3.251-61.968-3.657-153.803-3.86-195.86-3.657-42.057-0.203-133.892 0-195.86 3.657-2.438 0.203-4.673-1.016-5.892-3.251l-71.517-126.171c-2.235-4.063 0.406-9.143 5.079-9.346 36.368-1.829 163.556-7.721 268.19-8.127 104.635 0.203 231.619 6.298 268.19 8.127 4.47 0.203 7.314 5.283 5.079 9.346z" />
<glyph unicode="&#xe930;" d="M69.283 190.781c88.787-152.381 253.765-254.781 442.717-254.781s353.93 102.4 442.717 254.781h-885.435z" />
<glyph unicode="&#xe931;" d="M1024 448c0-282.77-229.23-512-512-512s-512 229.23-512 512c0 282.77 229.23 512 512 512s512-229.23 512-512z" />
<glyph unicode="&#xe932;" d="M297.244 72.533c198.705 95.289 420.165 128 618.87 223.289-31.492 86.959-62.781 174.121-94.273 261.079-198.705-95.289-420.165-128-618.87-223.289 31.289-87.162 62.781-174.121 94.273-261.079z" />
<glyph unicode="&#xe933;" d="M673.727 496.762c50.387 17.473 99.962 36.978 148.114 60.14 31.492-86.959 62.781-174.121 94.273-261.079-48.356-23.162-97.93-42.667-148.114-60.14-31.492 86.959-62.984 173.917-94.273 261.079z" />
<glyph unicode="&#xe934;" d="M634.311 423.213c-119.873-38.603-242.387-70.502-358.603-119.467-1.625-0.61-3.454 0-4.063 1.829-0.61 1.625 0.203 3.454 1.829 4.267 116.216 48.965 238.527 80.863 358.603 119.467 1.625 0.61 3.454-0.406 4.063-2.032 0.61-1.829-0.203-3.657-1.829-4.063z" />
<glyph unicode="&#xe935;" d="M287.898 269.816c116.216 48.965 238.527 80.863 358.603 119.467 1.625 0.61 3.454-0.406 4.063-2.032s-0.203-3.454-2.032-4.063c-119.873-38.603-242.387-70.502-358.603-119.467-1.625-0.61-3.454 0-4.063 1.829-0.406 1.625 0.406 3.657 2.032 4.267z" />
<glyph unicode="&#xe936;" d="M302.324 229.994c116.216 48.965 238.527 80.863 358.603 119.467 1.625 0.61 3.454-0.406 4.063-2.032s-0.203-3.454-2.032-4.063c-119.873-38.603-242.387-70.502-358.603-119.467-1.625-0.61-3.454 0-4.063 1.829-0.406 1.625 0.406 3.657 2.032 4.267z" />
<glyph unicode="&#xe937;" d="M316.749 190.171c116.216 48.965 238.527 80.863 358.603 119.467 1.625 0.61 3.454-0.406 4.063-2.032s-0.203-3.454-2.032-4.063c-119.873-38.603-242.387-70.502-358.603-119.467-1.625-0.61-3.454 0-4.063 1.829-0.406 1.625 0.406 3.454 2.032 4.267z" />
<glyph unicode="&#xe938;" d="M331.175 150.349c116.216 48.965 238.527 80.863 358.603 119.467 1.625 0.61 3.454-0.406 4.063-2.032s-0.203-3.454-2.032-4.063c-119.873-38.603-242.387-70.502-358.603-119.467-1.625-0.61-3.454 0-4.063 1.829-0.406 1.625 0.406 3.454 2.032 4.267z" />
<glyph unicode="&#xe939;" d="M755.2 367.949c-1.219 3.454-2.438 6.908-3.657 10.362 8.127 12.8 16.254 25.803 24.381 39.010-11.378 33.524-3.048 40.432-3.048 40.432s10.565 0.813 23.162-32.305c14.222-4.063 28.444-8.127 42.667-11.987 1.219-3.454 2.438-6.908 3.657-10.362-11.987-3.048-23.975-5.892-36.165-8.533 3.657-11.987 6.908-23.975 9.549-34.54 8.127-1.625 16.051-3.251 24.178-4.876 1.219-3.048 2.235-6.298 3.454-9.346-7.924-1.829-15.848-3.657-23.771-5.283 0.813-5.892 0.61-9.549-0.813-10.159s-3.86 2.032-6.908 6.908c-6.908-4.267-14.019-8.533-21.13-12.8-1.219 3.048-2.235 6.298-3.454 9.346 5.079 6.705 9.956 13.613 15.035 20.521-4.673 9.549-9.752 20.724-14.629 32.305-10.971-6.095-21.74-12.394-32.508-18.692z" />
<glyph unicode="&#xe93a;" d="M388.267 746.87v76.597l-33.117-32.914-31.898 31.898v-78.832z" />
<glyph unicode="&#xe93b;" d="M638.375 236.495h-400.66c-2.844 0-5.079 2.235-5.079 5.079v509.765c0 2.844 2.235 5.079 5.079 5.079h400.66c2.844 0 5.079-2.235 5.079-5.079v-509.562c0-3.048-2.438-5.283-5.079-5.283z" />
<glyph unicode="&#xe93c;" d="M280.584 756.419h-28.038c-10.971 0-20.114-8.94-20.114-20.114v-479.695c0-10.971 8.94-20.114 20.114-20.114h28.038v519.924z" />
<glyph unicode="&#xe93d;" d="M458.971 682.463c-47.949 0-86.959-39.010-86.959-86.959s39.010-86.959 86.959-86.959 86.959 39.010 86.959 86.959c0 47.949-39.010 86.959-86.959 86.959zM538.006 599.365h-35.556c-0.61 31.695-9.346 58.514-22.552 72.533 32.508-8.94 56.483-37.994 58.108-72.533zM455.111 674.337v-75.175h-32.305c0.813 38.603 15.035 71.111 32.305 75.175zM455.111 591.644v-75.175c-17.27 4.267-31.492 36.571-32.305 75.175h32.305zM462.629 516.673v75.175h32.305c-0.813-38.806-14.832-71.111-32.305-75.175zM462.629 599.365v75.175c17.27-4.267 31.492-36.571 32.305-75.175h-32.305zM437.638 671.898c-13.003-14.019-21.74-40.838-22.552-72.533h-35.556c1.829 34.54 25.803 63.594 58.108 72.533zM379.733 591.644h35.556c0.61-31.695 9.346-58.514 22.552-72.533-32.508 8.94-56.483 37.79-58.108 72.533zM480.102 519.111c13.003 14.019 21.74 40.838 22.552 72.533h35.556c-1.829-34.743-25.803-63.594-58.108-72.533z" />
<glyph unicode="&#xe93e;" d="M352.305 664.178v0c0.813 18.083 24.99 37.181 44.902 34.54v0 0c-12.394-15.238-28.648-28.241-44.902-34.54v0z" />
<glyph unicode="&#xe93f;" d="M335.441 633.702v0c-12.597 3.657-16.863 27.225-0.203 47.949v0 0c9.956-8.94 6.705-29.054 0.203-47.949v0z" />
<glyph unicode="&#xe940;" d="M335.441 633.702v0c12.8-3.86 26.819 5.079 37.181 17.473v0 0c-9.549 9.143-29.867 2.844-37.181-17.473v0z" />
<glyph unicode="&#xe941;" d="M328.533 594.692v0c-13.206-0.813-24.99 19.708-16.66 44.292v0 0c12.394-4.876 16.457-24.381 16.66-44.292v0z" />
<glyph unicode="&#xe942;" d="M328.533 594.692v0c13.41 0.61 23.771 14.019 28.851 28.648v0 0c-12.19 5.283-28.648-7.111-28.851-28.648v0z" />
<glyph unicode="&#xe943;" d="M335.035 555.886v0c-12.19-5.283-30.070 10.362-30.476 36.165v0 0c13.41-0.61 23.568-17.473 30.476-36.165v0z" />
<glyph unicode="&#xe944;" d="M335.035 555.886v0c12.394 5.283 17.676 21.333 17.676 36.775v0 0c-13.206 0.813-24.787-16.457-17.676-36.775v0z" />
<glyph unicode="&#xe945;" d="M354.743 520.94v0c-9.549-9.143-32.305-0.406-41.448 23.975v0 0c12.8 4.063 28.038-8.33 41.448-23.975v0z" />
<glyph unicode="&#xe946;" d="M354.743 520.94v0c9.752 9.143 8.737 26.413 3.657 41.244v0 0c-12.597-3.86-17.879-24.178-3.657-41.244v0z" />
<glyph unicode="&#xe947;" d="M399.644 495.34c-13.41 3.454-25.6 9.143-36.368 16.66 7.924-10.362 18.286-20.114 31.492-28.038 1.625 3.657 3.251 7.517 4.876 11.378z" />
<glyph unicode="&#xe948;" d="M565.638 664.178v0c-0.813 18.083-24.99 37.181-44.902 34.54v0 0c12.394-15.238 28.444-28.241 44.902-34.54v0z" />
<glyph unicode="&#xe949;" d="M582.298 633.702v0c12.597 3.657 16.863 27.225 0.203 47.949v0 0c-9.956-8.94-6.705-29.054-0.203-47.949v0z" />
<glyph unicode="&#xe94a;" d="M582.298 633.702v0c-12.8-3.86-26.819 5.079-37.181 17.473v0 0c9.752 9.143 29.867 2.844 37.181-17.473v0z" />
<glyph unicode="&#xe94b;" d="M589.206 594.692v0c13.206-0.813 24.99 19.708 16.66 44.292v0 0c-12.394-4.876-16.457-24.381-16.66-44.292v0z" />
<glyph unicode="&#xe94c;" d="M589.206 594.692v0c-13.41 0.61-23.771 14.019-28.851 28.648v0 0c12.19 5.283 28.648-7.111 28.851-28.648v0z" />
<glyph unicode="&#xe94d;" d="M582.908 555.886v0c12.19-5.283 30.070 10.362 30.476 36.165v0 0c-13.41-0.61-23.771-17.473-30.476-36.165v0z" />
<glyph unicode="&#xe94e;" d="M582.908 555.886v0c-12.394 5.283-17.676 21.333-17.676 36.775v0 0c13.206 0.813 24.584-16.457 17.676-36.775v0z" />
<glyph unicode="&#xe94f;" d="M562.997 520.94v0c9.549-9.143 32.305-0.406 41.448 23.975v0 0c-12.8 4.063-28.038-8.33-41.448-23.975v0z" />
<glyph unicode="&#xe950;" d="M562.997 520.94v0c-9.752 9.143-8.737 26.413-3.657 41.244v0 0c12.8-3.86 17.879-24.178 3.657-41.244v0z" />
<glyph unicode="&#xe951;" d="M518.095 495.34c13.41 3.454 25.6 9.143 36.368 16.66-7.924-10.362-18.286-20.114-31.492-28.038-1.625 3.657-3.251 7.517-4.876 11.378z" />
<glyph unicode="&#xe952;" d="M377.498 393.752c4.47-3.86 6.908-9.752 6.908-17.879 0-7.924-2.438-13.816-6.908-17.676-4.673-3.657-11.784-5.486-21.333-5.486h-8.737v-18.083h-14.425v64.813h22.959c9.752 0 17.067-1.829 21.537-5.689zM366.933 368.152c1.829 2.032 2.641 4.876 2.641 8.533s-1.219 6.502-3.454 7.924c-2.235 1.625-5.689 2.438-10.565 2.438h-8.127v-21.74h9.752c4.673 0 7.924 0.813 9.752 2.844z" />
<glyph unicode="&#xe953;" d="M437.638 334.629l-6.095 14.019h-27.225l-6.095-14.019h-15.441l28.038 64.813h14.019l28.038-64.813h-15.238zM417.93 380.14l-8.127-18.895h16.254l-8.127 18.895z" />
<glyph unicode="&#xe954;" d="M474.616 386.438c-1.422-1.219-2.032-2.641-2.032-4.47s0.813-3.454 2.641-4.47c1.625-1.016 5.689-2.438 11.784-3.86s10.971-3.86 14.425-6.908c3.454-3.048 5.079-7.517 5.079-13.206 0-5.892-2.235-10.565-6.502-14.222s-10.159-5.486-17.27-5.486c-10.362 0-19.505 3.86-27.835 11.378l8.533 10.565c6.908-6.095 13.41-9.143 19.302-9.143 2.641 0 4.673 0.61 6.298 1.625 1.422 1.219 2.235 2.641 2.235 4.673s-0.813 3.454-2.438 4.673-4.876 2.235-9.549 3.454c-7.517 1.829-13.003 4.063-16.66 6.908-3.454 2.844-5.283 7.314-5.283 13.613 0 6.095 2.235 10.971 6.705 14.222s9.956 5.079 16.66 5.079c4.267 0 8.737-0.813 13.003-2.235s8.127-3.657 11.378-6.298l-7.314-10.565c-5.689 4.267-11.378 6.502-17.473 6.502-2.438 0-4.267-0.61-5.689-1.829z" />
<glyph unicode="&#xe955;" d="M533.333 386.438c-1.422-1.219-2.032-2.641-2.032-4.47s0.813-3.454 2.641-4.47c1.625-1.016 5.689-2.438 11.784-3.86s10.971-3.86 14.425-6.908 5.079-7.517 5.079-13.206c0-5.892-2.235-10.565-6.502-14.222s-10.159-5.486-17.27-5.486c-10.362 0-19.505 3.86-27.835 11.378l8.533 10.565c6.908-6.095 13.41-9.143 19.302-9.143 2.641 0 4.673 0.61 6.298 1.625 1.422 1.219 2.235 2.641 2.235 4.673s-0.813 3.454-2.438 4.673-4.876 2.235-9.549 3.454c-7.517 1.829-13.003 4.063-16.66 6.908-3.454 2.844-5.283 7.314-5.283 13.613 0 6.095 2.235 10.971 6.705 14.222s9.956 5.079 16.66 5.079c4.267 0 8.737-0.813 13.003-2.235s8.127-3.657 11.378-6.298l-7.314-10.565c-5.689 4.267-11.378 6.502-17.473 6.502-2.438 0-4.267-0.61-5.689-1.829z" />
<glyph unicode="&#xe956;" d="M1024 448c0-282.77-229.23-512-512-512s-512 229.23-512 512c0 282.77 229.23 512 512 512s512-229.23 512-512z" />
<glyph unicode="&#xe957;" d="M101.384 142.222c93.257-125.156 242.59-206.222 410.616-206.222s317.359 81.067 410.616 206.222h-821.232z" />
<glyph unicode="&#xe958;" d="M633.092 157.054c12.8 5.689 20.927 18.286 20.927 32.102v121.092c0 10.565-5.283 19.911-13.41 26.616-5.079 4.267-8.127 9.956-8.127 16.051 0 10.768 9.143 19.708 21.537 22.552v8.127h15.848v-8.127c12.394-2.844 21.537-11.784 21.537-22.552 0-6.298-3.048-11.987-8.127-16.051-8.127-6.705-13.41-16.254-13.41-26.616v-121.092c0-14.019 8.33-26.616 20.927-32.102l33.321-14.629h-124.343l33.321 14.629z" />
<glyph unicode="&#xe959;" d="M762.108 607.898c14.222-34.946 22.552-75.378 22.552-113.778 0-98.743-54.857-147.302-122.717-147.302s-122.717 48.559-122.717 147.302c0 38.4 8.33 78.832 22.552 113.778h200.33z" />
<glyph unicode="&#xe95a;" d="M772.47 525.816c1.625-11.987 2.438-23.771 2.438-35.556 0-84.724-43.276-137.346-112.762-137.346s-112.762 52.622-112.762 137.346c0 11.581 0.813 23.568 2.438 35.556h220.648z" />
<glyph unicode="&#xe95b;" d="M709.892 388.063l1.829 1.829c1.422 1.422 3.251 3.251 5.486 5.892s4.876 5.892 7.721 9.752 5.689 8.33 8.33 13.41c5.486 10.159 10.565 22.552 13.816 36.368 1.625 6.908 2.844 14.019 3.86 21.333 0.813 7.517 1.422 14.629 1.422 22.349 0.203 8.94-0.203 17.879-1.016 26.616h-10.768c1.625-8.737 2.641-17.676 3.048-26.819 0.406-7.111 0.406-14.832 0.203-21.74-0.406-7.111-1.016-14.222-2.235-20.927-2.235-13.613-6.095-26.006-10.768-36.165-2.438-5.079-4.876-9.752-7.314-13.816s-4.876-7.314-6.908-9.956c-2.032-2.844-3.86-4.876-5.079-6.095-0.813-1.016-1.422-1.625-1.625-2.032z" />
<glyph unicode="&#xe95c;" d="M730.413 607.898h-18.489c0.813-1.625 2.032-3.657 3.251-6.095 3.048-5.689 6.908-14.222 10.971-24.381 5.689-14.222 11.175-32.305 14.425-51.606h10.768c-1.829 20.521-6.298 39.822-10.971 55.060-3.454 10.971-6.908 19.911-9.549 26.21-0.203 0.406-0.203 0.61-0.406 0.813z" />
<glyph unicode="&#xe95d;" d="M329.752 775.314h67.251l12.8 47.34h-92.851z" />
<glyph unicode="&#xe95e;" d="M326.298 679.416v86.349h73.956v-86.349c0-18.895 9.752-36.165 26.006-45.917 35.149-21.333 58.717-59.937 58.717-104.025v-357.994c0-15.441-12.597-28.038-28.038-28.038h-187.327c-15.441 0-28.038 12.597-28.038 28.038v357.994c0 44.089 23.568 82.692 58.717 104.025 16.254 9.752 26.006 27.225 26.006 45.917z" />
<glyph unicode="&#xe95f;" d="M318.578 758.654h89.397c1.016 0 1.625 0.813 1.625 1.625v19.098c0 1.016-0.813 1.625-1.625 1.625h-89.397c-1.016 0-1.625-0.813-1.625-1.625v-19.098c0-0.813 0.61-1.625 1.625-1.625z" />
<glyph unicode="&#xe960;" d="M241.778 489.854h198.502v-223.289h-198.502v223.289z" />
<glyph unicode="&#xe961;" d="M1024 448c0-282.77-229.23-512-512-512s-512 229.23-512 512c0 282.77 229.23 512 512 512s512-229.23 512-512z" />
<glyph unicode="&#xe962;" d="M923.835 448c0-227.45-184.385-411.835-411.835-411.835s-411.835 184.385-411.835 411.835c0 227.45 184.385 411.835 411.835 411.835s411.835-184.385 411.835-411.835z" />
<glyph unicode="&#xe963;" d="M842.159 422.603c-14.019 0-25.397 11.378-25.397 25.397s11.378 25.397 25.397 25.397h29.663c-12.394 178.997-155.429 322.032-334.425 334.629v-29.663c0-14.019-11.378-25.397-25.397-25.397s-25.397 11.378-25.397 25.397v29.663c-178.997-12.597-322.032-155.632-334.629-334.629h29.663c14.019 0 25.397-11.378 25.397-25.397s-11.378-25.397-25.397-25.397h-29.663c12.597-178.997 155.632-322.032 334.629-334.629v29.663c0 14.019 11.378 25.397 25.397 25.397s25.397-11.378 25.397-25.397v-29.663c178.997 12.394 322.032 155.429 334.629 334.629h-29.867z" />
<glyph unicode="&#xe964;" d="M334.629 528.863c3.657 5.283 5.689 10.362 5.689 15.238s-1.625 9.143-4.876 12.394c-3.251 3.251-7.314 4.876-12.394 4.876-9.346 0-18.083-6.705-26.413-19.911l-26.413 15.644c6.908 10.768 14.425 18.895 22.756 24.381s18.692 8.33 31.492 8.33 23.975-4.063 33.524-12.19 14.425-19.098 14.425-33.117c0-7.517-2.032-14.832-5.892-21.943-3.86-6.908-10.971-15.848-21.537-26.819l-26.616-27.429h58.311v-29.663h-104.229v24.584l43.276 44.292c8.94 8.94 15.238 16.051 18.895 21.333z" />
<glyph unicode="&#xe965;" d="M453.892 502.451v25.803h31.695v-25.803h16.66v-28.444h-16.66v-35.352h-31.695v35.352h-59.327v25.194l52.622 87.365h35.962l-50.184-83.911h20.927v-0.203z" />
<glyph unicode="&#xe966;" d="M613.994 608.711h30.070l-88.787-193.829h-29.867l88.584 193.829z" />
<glyph unicode="&#xe967;" d="M668.038 539.022v47.34h106.667v-24.99l-59.733-122.717h-35.962l57.092 119.467h-37.181v-19.098h-30.883z" />
<glyph unicode="&#xe968;" d="M273.879 357.384c-1.829-1.422-2.844-3.454-2.844-6.095 0-2.438 1.219-4.47 3.454-5.892s7.517-3.251 15.644-5.283 14.629-5.079 19.098-9.143 6.705-9.956 6.705-17.676c0-7.721-2.844-14.019-8.737-18.895s-13.41-7.314-22.959-7.314c-13.613 0-26.006 5.079-36.978 15.238l11.581 14.019c9.346-8.127 17.879-12.19 25.803-12.19 3.454 0 6.298 0.813 8.33 2.235 2.032 1.625 3.048 3.657 3.048 6.095 0 2.641-1.016 4.673-3.251 6.095s-6.298 3.048-12.8 4.673c-9.956 2.438-17.473 5.486-22.146 9.346s-6.908 9.752-6.908 18.083c0 8.127 2.844 14.425 8.737 18.895s13.206 6.705 22.146 6.705c5.689 0 11.581-1.016 17.27-3.048s10.768-4.876 15.035-8.33l-9.752-14.019c-7.517 5.689-15.238 8.533-23.162 8.533-3.048 0.203-5.486-0.61-7.314-2.032z" />
<glyph unicode="&#xe969;" d="M393.956 374.451v-17.067h-43.073v-17.879h38.603v-16.457h-38.603v-17.879h44.292v-17.067h-63.594v86.349h62.375z" />
<glyph unicode="&#xe96a;" d="M481.727 345.803c0-13.816-5.486-22.756-16.457-26.819l21.943-30.883h-23.771l-19.098 27.632h-13.41v-27.632h-19.302v86.349h32.711c13.41 0 22.959-2.235 28.648-6.705 5.892-4.47 8.737-11.784 8.737-21.943zM458.565 335.644c2.438 2.235 3.657 5.486 3.657 10.159s-1.219 7.924-3.657 9.549c-2.438 1.829-6.705 2.641-13.003 2.641h-14.425v-25.6h14.019c6.502 0 10.971 1.016 13.41 3.251z" />
<glyph unicode="&#xe96b;" d="M531.098 319.594l21.943 55.060h20.927l-34.743-86.349h-16.254l-34.743 86.349h20.927l21.943-55.060z" />
<glyph unicode="&#xe96c;" d="M583.517 374.451h19.302v-86.349h-19.302v86.349z" />
<glyph unicode="&#xe96d;" d="M662.959 305.168c9.549 0 17.27 3.657 23.162 11.175l12.394-12.8c-9.752-10.971-21.333-16.457-34.743-16.457-13.206 0-24.178 4.267-32.914 12.597-8.533 8.33-13.003 19.098-13.003 31.898s4.47 23.568 13.206 32.102c8.737 8.533 19.505 12.8 32.102 12.8 14.222 0 26.006-5.486 35.556-16.254l-11.987-13.613c-6.095 7.517-13.613 11.378-22.756 11.378-7.314 0-13.41-2.438-18.489-7.111s-7.721-11.175-7.721-19.098c0-8.127 2.438-14.425 7.314-19.302 5.079-4.876 10.971-7.314 17.879-7.314z" />
<glyph unicode="&#xe96e;" d="M775.111 374.451v-17.067h-43.073v-17.879h38.603v-16.457h-38.603v-17.879h44.292v-17.067h-63.594v86.349h62.375z" />
<glyph unicode="&#xe96f;" d="M235.453 10.492h441.202c196.567 80.472 224.67 278.621 226.271 465.467 0.094 10.337-8.344 18.735-18.679 18.735h-856.385c-10.337 0-18.773-8.398-18.679-18.735 1.602-186.846 29.704-384.997 226.271-465.467v0z" />
<glyph unicode="&#xe970;" d="M456.050 624.784c-4.805 0-9.629 1.862-13.26 5.567-28.754 29.182-43.076 59.52-42.591 90.21 0.466 29.852 14.936 58.552 43.002 85.313 20.988 19.535 31.678 39.501 31.901 59.446 0.26 20.598-10.523 41.697-32.069 62.723-7.356 7.208-7.486 18.995-0.298 26.333 7.188 7.394 18.995 7.486 26.333 0.336 29.090-28.438 43.654-58.664 43.28-89.838-0.354-30.542-15.028-59.52-43.616-86.095-20.411-19.461-30.988-39.313-31.306-58.83-0.316-20.299 10.411-41.659 31.883-63.487 7.226-7.318 7.132-19.107-0.186-26.333-3.631-3.557-8.36-5.345-13.071-5.345z" />
<glyph unicode="&#xe971;" d="M660.469 624.784c-4.805 0-9.629 1.862-13.26 5.567-28.754 29.182-43.076 59.52-42.591 90.21 0.466 29.852 14.936 58.552 43.002 85.313 21.138 19.665 31.883 39.723 32.125 59.78 0.242 20.523-10.467 41.511-31.847 62.387-7.356 7.208-7.506 18.995-0.316 26.333 7.188 7.394 18.995 7.486 26.333 0.336 28.96-28.29 43.448-58.402 43.076-89.522-0.354-30.598-15.104-59.688-43.84-86.411-20.411-19.461-30.988-39.313-31.306-58.83-0.316-20.299 10.411-41.659 31.883-63.487 7.226-7.318 7.132-19.107-0.186-26.333-3.631-3.555-8.36-5.343-13.071-5.343z" />
<glyph unicode="&#xe972;" d="M269.382 624.784c-4.805 0-9.629 1.862-13.26 5.567-28.754 29.182-43.076 59.52-42.591 90.21 0.466 29.852 14.936 58.552 43.002 85.313 21.138 19.665 31.883 39.723 32.125 59.78 0.242 20.523-10.467 41.511-31.847 62.387-7.356 7.208-7.506 18.995-0.316 26.333 7.188 7.394 18.995 7.486 26.333 0.336 28.96-28.29 43.448-58.402 43.076-89.522-0.354-30.598-15.104-59.688-43.84-86.411-20.411-19.461-30.988-39.313-31.306-58.83-0.316-20.299 10.411-41.659 31.883-63.487 7.226-7.318 7.132-19.107-0.186-26.333-3.631-3.555-8.36-5.343-13.071-5.343z" />
<glyph unicode="&#xe973;" d="M344.328 47.738c-1.024 0-2.087 0.094-3.129 0.26-147.794 25.067-227.165 110.119-257.317 275.754-1.824 10.113 4.861 19.815 14.992 21.64 10.205 1.955 19.815-4.861 21.658-14.974 27.283-149.86 95.145-223.33 226.905-245.696 10.131-1.712 16.947-11.341 15.234-21.472-1.544-9.086-9.423-15.512-18.343-15.512z" />
<glyph unicode="&#xe974;" d="M716.7 364.333c-10.281 0-18.623 8.324-18.623 18.623v111.366c0 10.299 8.344 18.623 18.623 18.623s18.623-8.324 18.623-18.623v-111.366c0.002-10.299-8.342-18.623-18.623-18.623z" />
<glyph unicode="&#xe975;" d="M772.411 233.226h-111.74v148.984l56.037 37.62 55.851-37.62z" />
<glyph unicode="&#xe976;" d="M902.66 457.339c-2.235-119.206-17.153-241.189-81.066-332.945 109.151 14.786 193.234 107.959 193.234 221.205v47.899c0 35.253-28.586 63.841-63.841 63.841h-48.327z" />
<glyph unicode="&#xe977;" d="M288.523-64h-242.103c-20.58 0-37.246 16.668-37.246 37.246v0c0 20.58 16.668 37.246 37.246 37.246h782.173c20.58 0 37.246-16.668 37.246-37.246v0c0-20.58-16.668-37.246-37.246-37.246h-223.478l-55.869 18.623h-204.855l-55.869-18.623z" />
<glyph unicode="&#xe978;" d="M184.216 280.864l161.436-160.636c8.79-8.79 24.774-135.862 15.984-144.653l-31.968-31.968c-8.79-8.79-23.177-8.79-31.968 0l-144.653 144.653c-51.947 51.947-104.694 103.894-129.468 129.468l-15.984 15.984c-8.79 8.79-8.79 23.177 0 31.968l31.968 31.968c8.79 8.79 135.86-7.993 144.653-16.783z" />
<glyph unicode="&#xe979;" d="M244.154 863.47c-23.975 0-43.956-19.979-43.956-43.956s19.979-43.956 43.956-43.956 43.956 19.979 43.956 43.956-19.981 43.956-43.956 43.956zM380.016 815.52c-23.975 0-43.956-19.979-43.956-43.956s19.979-43.956 43.956-43.956 43.956 19.979 43.956 43.956-19.981 43.956-43.956 43.956zM879.508 324.019c0 23.975-19.979 43.956-43.956 43.956s-43.956-19.979-43.956-43.956c0-23.975 19.979-43.956 43.956-43.956s43.956 19.182 43.956 43.956zM883.503 232.113c-23.975 0-43.956-19.979-43.956-43.956 0-23.975 19.979-43.956 43.956-43.956 23.975 0 43.956 19.979 43.956 43.956-0.002 23.977-19.981 43.956-43.956 43.956z" />
<glyph unicode="&#xe97a;" d="M598.993 692.444l158.24-158.24c17.583-17.583 191.805-504.287 174.222-521.87l-63.136-63.136c-17.583-17.583-45.553-17.583-63.136 0l-349.245 443.552-442.75 347.646c-17.583 17.583-17.583 45.553 0 63.136l63.136 63.136c17.583 17.581 505.087-156.641 522.669-174.224z" />
<glyph unicode="&#xe97b;" d="M1004.98 940.193c43.956-43.956 4.795-153.443-47.152-206.19l-571.419-570.619c-52.747-52.747-241.355-171.026-285.31-127.072s74.325 232.563 127.072 285.31l570.619 571.419c52.745 52.747 162.233 91.106 206.19 47.152z" />
<glyph unicode="&#xe97c;" d="M267.331 283.261l570.619 570.619c44.754 44.754 130.268 79.12 181.415 62.337-3.196 9.59-7.991 17.583-14.385 24.774-43.956 43.956-153.445 4.797-206.192-47.95l-570.619-570.619c-52.747-52.747-170.226-241.353-127.072-285.31 6.394-6.394 16.783-9.59 29.569-9.59 0.802 68.729 91.908 210.985 136.664 255.738z" />
<glyph unicode="&#xe97d;" d="M280.117 531.008l90.309-70.328 230.966 230.966-2.398 2.398c-4.795 4.795-49.549 23.177-110.288 46.353 0-0.002-208.588-209.39-208.588-209.39z" />
<glyph unicode="&#xe97e;" d="M526.267 303.24l278.116-354.040c15.984-15.984 41.558-16.783 59.141-3.196l-306.888 387.605-30.369-30.369zM398.396 491.849l-390.003 305.289c-11.988-17.583-10.389-41.558 4.795-56.742l354.84-278.116 30.369 29.569z" />
<glyph unicode="&#xe97f;" d="M368.027 462.279l30.369 29.569-87.91 68.731-30.369-29.569 87.91-68.731z" />
<glyph unicode="&#xe980;" d="M512.006 959.994c-282.773 0-512.006-229.212-512.006-512.006 0-282.751 229.233-511.981 512.006-511.981 282.761 0 511.994 229.231 511.994 511.981 0 282.796-229.233 512.006-511.994 512.006z" />
<glyph unicode="&#xe981;" d="M679.606 478.591c-15.822 6.782-34.753-2.037-42.319-19.71l-93.416-222.245c-6.848-16.020-0.815-34.010 13.533-40.159 14.329-6.136 31.523 1.88 38.388 17.918l100.978 218.020c7.574 17.652-1.381 39.401-17.163 46.175z" />
<glyph unicode="&#xe982;" d="M747.012 451.123c-16.525 6.79-37.284 0.116-44.592-17.673l-104.477-267.125c-6.627-16.108 0.149-34.2 15.149-40.359 14.979-6.152 32.504 1.942 39.133 18.065l114.29 261.734c7.287 17.784-2.974 38.565-19.503 45.357z" />
<glyph unicode="&#xe983;" d="M813.389 422.534c-15.96 6.334-36.65-1.919-43.708-19.809l-85.157-220.979c-7.083-17.854 0.147-37.473 16.119-43.805 15.985-6.34 34.663 3.015 41.75 20.876l91.142 218.598c7.071 17.885-4.167 38.784-20.145 45.12z" />
<glyph unicode="&#xe984;" d="M881.462 402.335c-15.114 5.735-36.262-2.667-43.081-20.606l-42.264-129.297c-5.919-15.59-0.080-32.258 13.031-37.253 13.114-4.976 28.551 3.622 34.471 19.208l43.291 126.083c6.835 17.966 9.653 36.122-5.449 41.863z" />
<glyph unicode="&#xe985;" d="M724.978 653.697c0 0-60.438-38.479-91.196-56.643-15.669-9.327-35.090-44.604-59.051-76.055-23-30.227-51.962-51.89-48.806-63.821 8.656-32.733 55.049-10.276 60.331-7.267 44.85 25.66 86.459 80.775 86.459 80.775l75.803 21.602-23.54 101.408z" />
<glyph unicode="&#xe986;" d="M523.991 451.82c32.046 7.366 35.562 51.107 35.562 51.107-48.858-41.993-35.562-51.107-35.562-51.107z" />
<glyph unicode="&#xe987;" d="M823.75 255.863c-9.667 3.271-18.688 2.433-22.789-9.682-0.188-0.553-0.999-4.216-1.16-4.803-3.35-12.094 2.206-20.531 11.434-23.654 8.963-3.038 18.075-0.466 23.047 10.87 0.392 0.879 1.375 4.856 1.672 5.731 4.105 12.111-2.543 18.259-12.204 21.536z" />
<glyph unicode="&#xe988;" d="M823.18 254.47c-9.244 3.288-17.929 2.615-22.050-8.967-0.19-0.53-2.446-8.782-2.613-9.339-3.389-11.578-3.071-25.107 8.408-29.191 11.473-4.089 19.607 5.566 24.56 16.389 0.384 0.84 2.809 9.384 3.106 10.222 4.124 11.589-2.169 17.594-11.411 20.886z" />
<glyph unicode="&#xe989;" d="M823.764 254.183c-9.238 3.288-17.923 2.617-22.044-8.967-0.19-0.528-1.358-3.779-1.519-4.34-3.397-11.574 1.822-19.766 10.647-22.907 8.565-3.052 17.361-0.716 22.317 10.107 0.384 0.84 1.717 4.386 2.021 5.222 4.124 11.587-2.181 17.594-11.421 20.886z" />
<glyph unicode="&#xe98a;" d="M719.965 187.050c-11.65 4.34-22.657 3.649-28.097-10.945-0.239-0.671-1.372-5.1-1.589-5.806-4.522-14.6 1.934-25.074 13.046-29.214 10.794-4.027 21.988-1.23 28.459 12.385 0.512 1.057 1.857 5.863 2.25 6.912 5.438 14.598-2.431 22.325-14.067 26.667z" />
<glyph unicode="&#xe98b;" d="M719.216 185.378c-11.126 4.342-21.72 3.841-27.167-10.107-0.254-0.64-3.298-10.6-3.523-11.273-4.555-13.968-4.656-30.448 9.164-35.843 13.815-5.397 24.071 6.059 30.494 19.051 0.502 1.005 3.767 11.32 4.165 12.327 5.447 13.952-2.008 21.497-13.132 25.844z" />
<glyph unicode="&#xe98c;" d="M719.919 185.007c-11.132 4.342-21.72 3.843-27.162-10.107-0.254-0.64-1.796-4.551-2.016-5.226-4.561-13.968 1.498-24.131 12.117-28.277 10.323-4.031 21.119-1.509 27.542 11.485 0.504 1.009 2.26 5.275 2.652 6.28 5.447 13.952-2 21.497-13.132 25.844z" />
<glyph unicode="&#xe98d;" d="M633.572 174.885c-11.331 5.108-22.368 5.151-28.762-9.052-0.289-0.65-1.709-4.997-1.977-5.684-5.484-14.267 0.264-25.15 11.075-30.017 10.509-4.737 21.865-2.693 29.22 10.464 0.578 1.020 2.239 5.725 2.706 6.749 6.398 14.201-0.937 22.436-12.261 27.54z" />
<glyph unicode="&#xe98e;" d="M632.711 173.272c-10.81 5.071-21.417 5.275-27.775-8.28-0.299-0.619-3.998-10.356-4.264-11.013-5.473-13.634-6.666-30.070 6.755-36.373 13.43-6.305 24.424 4.443 31.695 16.981 0.57 0.97 4.516 11.046 4.974 12.026 6.367 13.555-0.572 21.58-11.384 26.659z" />
<glyph unicode="&#xe98f;" d="M633.394 172.853c-10.815 5.069-21.421 5.277-27.78-8.278-0.293-0.623-2.093-4.423-2.357-5.083-5.477-13.632-0.109-24.176 10.214-29.020 10.024-4.706 20.969-2.908 28.24 9.63 0.57 0.974 2.605 5.112 3.067 6.093 6.357 13.555-0.572 21.58-11.384 26.659z" />
<glyph unicode="&#xe990;" d="M578.064 243.728c-11.326 5.106-22.358 5.149-28.758-9.054-0.289-0.65-1.709-4.997-1.971-5.684-5.484-14.265 0.258-25.148 11.073-30.017 10.511-4.734 21.862-2.691 29.222 10.466 0.578 1.022 2.239 5.725 2.7 6.749 6.398 14.199-0.933 22.434-12.266 27.54z" />
<glyph unicode="&#xe991;" d="M577.208 242.112c-10.81 5.069-21.417 5.275-27.775-8.28-0.293-0.621-3.998-10.356-4.258-11.013-5.475-13.634-6.677-30.070 6.755-36.371 13.423-6.305 24.422 4.439 31.695 16.977 0.563 0.972 4.514 11.048 4.968 12.028 6.365 13.557-0.57 21.58-11.384 26.659z" />
<glyph unicode="&#xe992;" d="M577.893 241.695c-10.817 5.071-21.417 5.275-27.782-8.28-0.287-0.621-2.093-4.423-2.355-5.081-5.48-13.632-0.111-24.176 10.212-29.024 10.030-4.706 20.965-2.906 28.246 9.63 0.563 0.974 2.598 5.114 3.057 6.090 6.365 13.56-0.563 21.584-11.378 26.665z" />
<glyph unicode="&#xe993;" d="M690.873 570.802c0 0-15.512-23.227-23.464-37.692-7.869-14.311-24.512-60.248-24.512-60.248s18.41 40.749 28.729 58.044c10.251 17.182 22.88 35.736 22.88 35.736l-3.632 4.161z" />
<glyph unicode="&#xe994;" d="M826.284 852.19l-41.591-113.459c-12.528-14.878-75.349-95.528-75.349-95.528l-79.523-203.835 113.333-49.161 93.87-21.035 51.153-6.167c0 0 45.011 92.791 63.224 152.3 17.821 58.221 19.908 91.776 25.464 147.483-34.52 74.586-86.445 139.459-150.581 189.4z" />
<glyph unicode="&#xe995;" d="M314.656 643.206c0 0-62.82 80.647-75.349 95.528l-41.591 113.454c-64.136-49.941-116.059-114.815-150.581-189.4 5.554-55.708 7.642-89.262 25.464-147.481 18.214-59.509 63.224-152.3 63.224-152.3l51.153 6.167 93.87 21.035 113.335 49.161-79.525 203.837z" />
<glyph unicode="&#xe996;" d="M480.13 236.634l-93.416 222.245c-7.566 17.673-26.498 26.492-42.319 19.71-15.782-6.774-24.735-28.52-17.159-46.177l100.976-218.020c6.862-16.038 24.056-24.054 38.388-17.918 14.344 6.15 20.379 24.141 13.531 40.161z" />
<glyph unicode="&#xe997;" d="M426.057 166.327l-104.477 267.125c-7.306 17.788-28.068 24.463-44.592 17.673-16.529-6.792-26.789-27.573-19.501-45.355l114.292-261.734c6.627-16.123 24.151-24.219 39.131-18.065 14.998 6.156 21.774 24.246 15.147 40.357z" />
<glyph unicode="&#xe998;" d="M339.474 181.746l-85.157 220.979c-7.058 17.887-27.744 26.143-43.708 19.809-15.978-6.336-27.216-27.235-20.147-45.12l91.144-218.598c7.087-17.861 25.765-27.216 41.75-20.876 15.972 6.332 23.204 25.951 16.119 43.805z" />
<glyph unicode="&#xe999;" d="M227.883 252.433l-42.264 129.297c-6.819 17.939-27.967 26.341-43.081 20.606-15.101-5.74-12.284-23.895-5.451-41.863l43.291-126.083c5.919-15.584 21.359-24.184 34.471-19.208 13.114 4.995 18.952 21.662 13.033 37.253z" />
<glyph unicode="&#xe99a;" d="M449.267 520.999c-23.961 31.451-43.384 66.731-59.049 76.055-30.758 18.164-91.198 56.643-91.198 56.643l-23.54-101.41 75.803-21.602c0 0 41.607-55.115 86.459-80.775 5.286-3.007 51.675-25.466 60.331 7.267 3.156 11.933-25.806 33.598-48.806 63.823z" />
<glyph unicode="&#xe99b;" d="M464.449 502.928c0 0 3.515-43.741 35.56-51.107 0 0 13.295 9.114-35.56 51.107z" />
<glyph unicode="&#xe99c;" d="M224.199 241.379c-0.159 0.584-0.972 4.249-1.16 4.803-4.101 12.115-13.122 12.953-22.789 9.682-9.663-3.277-16.309-9.424-12.204-21.536 0.297-0.875 1.278-4.852 1.672-5.731 4.972-11.337 14.084-13.906 23.047-10.87 9.225 3.123 14.783 11.56 11.434 23.654z" />
<glyph unicode="&#xe99d;" d="M225.481 236.166c-0.167 0.557-2.423 8.809-2.613 9.339-4.122 11.582-12.806 12.255-22.050 8.967-9.24-3.292-15.533-9.3-11.411-20.884 0.297-0.836 2.72-9.382 3.104-10.222 4.953-10.823 13.089-20.478 24.56-16.389 11.481 4.082 11.797 17.611 8.41 29.189z" />
<glyph unicode="&#xe99e;" d="M223.799 240.877c-0.161 0.561-1.331 3.81-1.519 4.34-4.122 11.584-12.806 12.255-22.044 8.967-9.242-3.292-15.543-9.3-11.417-20.884 0.301-0.836 1.637-4.382 2.021-5.222 4.951-10.823 13.747-13.159 22.317-10.107 8.823 3.137 14.042 11.331 10.643 22.905z" />
<glyph unicode="&#xe99f;" d="M333.722 170.3c-0.215 0.708-1.348 5.135-1.589 5.806-5.442 14.594-16.449 15.285-28.097 10.945-11.638-4.342-19.506-12.069-14.067-26.667 0.39-1.048 1.738-5.855 2.25-6.912 6.47-13.615 17.665-16.414 28.459-12.385 11.114 4.138 17.57 14.614 13.046 29.214z" />
<glyph unicode="&#xe9a0;" d="M335.474 164.001c-0.225 0.673-3.269 10.633-3.523 11.273-5.447 13.948-16.038 14.447-27.167 10.107-11.122-4.346-18.579-11.894-13.13-25.844 0.394-1.007 3.659-11.322 4.163-12.327 6.423-12.992 16.678-24.448 30.494-19.051 13.82 5.393 13.721 21.873 9.164 35.843z" />
<glyph unicode="&#xe9a1;" d="M333.26 169.674c-0.219 0.675-1.763 4.588-2.016 5.226-5.44 13.95-16.032 14.449-27.162 10.107-11.132-4.346-18.579-11.892-13.132-25.842 0.392-1.005 2.148-5.273 2.652-6.28 6.421-12.994 17.219-15.516 27.542-11.485 10.619 4.144 16.676 14.307 12.117 28.275z" />
<glyph unicode="&#xe9a2;" d="M421.165 160.15c-0.268 0.687-1.688 5.034-1.977 5.684-6.394 14.203-17.429 14.16-28.762 9.052-11.322-5.106-18.659-13.339-12.261-27.54 0.466-1.024 2.126-5.729 2.706-6.749 7.356-13.157 18.711-15.2 29.22-10.464 10.81 4.867 16.56 15.749 11.075 30.017z" />
<glyph unicode="&#xe9a3;" d="M423.328 153.979c-0.268 0.656-3.967 10.394-4.264 11.013-6.359 13.555-16.965 13.349-27.775 8.28-10.808-5.077-17.751-13.103-11.386-26.659 0.46-0.98 4.404-11.056 4.974-12.026 7.273-12.538 18.267-23.284 31.695-16.981 13.425 6.301 12.23 22.738 6.757 36.373z" />
<glyph unicode="&#xe9a4;" d="M420.74 159.491c-0.264 0.66-2.064 4.46-2.355 5.083-6.361 13.555-16.967 13.347-27.782 8.278-10.81-5.079-17.741-13.103-11.386-26.659 0.464-0.982 2.497-5.118 3.067-6.093 7.269-12.538 18.214-14.336 28.24-9.63 10.325 4.846 15.696 15.388 10.216 29.020z" />
<glyph unicode="&#xe9a5;" d="M476.665 228.987c-0.262 0.687-1.682 5.034-1.971 5.684-6.4 14.203-17.429 14.16-28.758 9.054-11.333-5.106-18.663-13.341-12.266-27.542 0.46-1.024 2.12-5.727 2.7-6.749 7.36-13.157 18.711-15.202 29.222-10.466 10.815 4.873 16.556 15.753 11.073 30.019z" />
<glyph unicode="&#xe9a6;" d="M478.828 222.819c-0.262 0.656-3.967 10.392-4.258 11.013-6.359 13.553-16.965 13.349-27.775 8.28-10.815-5.079-17.751-13.101-11.386-26.659 0.456-0.98 4.404-11.056 4.968-12.028 7.273-12.538 18.273-23.282 31.695-16.977 13.434 6.301 12.232 22.738 6.757 36.371z" />
<glyph unicode="&#xe9a7;" d="M476.244 228.333c-0.262 0.658-2.066 4.46-2.355 5.081-6.365 13.553-16.965 13.349-27.782 8.28-10.815-5.079-17.745-13.106-11.38-26.663 0.46-0.978 2.493-5.116 3.059-6.090 7.277-12.536 18.211-14.336 28.244-9.63 10.325 4.846 15.694 15.388 10.214 29.022z" />
<glyph unicode="&#xe9a8;" d="M356.591 533.111c-7.954 14.464-23.462 37.692-23.462 37.692l-3.634-4.161c0 0 12.631-18.554 22.882-35.736 10.317-17.295 28.727-58.044 28.727-58.044s-16.643 45.937-24.512 60.248z" />
<glyph unicode="&#xe9a9;" d="M751.181 495.504c-14.769 36.567-40.838 43.219-65.658 33.197-24.812-10.020-38.959-32.912-24.195-69.48 10.874-26.925 52.851-72.959 77.669-62.937 24.816 10.020 22.296 74.173 12.183 99.22z" />
<glyph unicode="&#xe9aa;" d="M742.69 443.28c-6.664 16.505-17.012 16.024-28.205 11.504s-18.987-11.366-12.323-27.868c6.66-16.492 29.697-34.58 36.439-31.856 7.036 2.84 10.749 31.73 4.089 48.22z" />
<glyph unicode="&#xe9ab;" d="M873.96 461.646c-13.182 23.293-37.725 34.324-72.049 14.907-25.274-14.298-65.428-61.928-52.253-85.221 13.18-23.295 76.454-12.418 99.965 0.881 34.322 19.419 37.511 46.138 24.337 69.432z" />
<glyph unicode="&#xe9ac;" d="M804.457 423.279c-5.946 10.503-13.751 17.336-29.241 8.573-15.481-8.759-30.405-33.961-26.824-40.289 3.736-6.6 32.863-6.511 48.342 2.245 15.495 8.765 13.665 18.961 7.723 29.47z" />
<glyph unicode="&#xe9ad;" d="M855.796 358.185c-23.26 17.38-83.025 34.962-99.045 13.522-16.018-21.443 19.413-74.984 41.054-91.148 31.596-23.606 57.334-15.766 73.35 5.671 16.020 21.443 16.238 48.352-15.359 71.954z" />
<glyph unicode="&#xe9ae;" d="M804.135 364.622c-14.249 10.645-43.327 14.162-47.679 8.336-4.536-6.074 7.269-32.704 21.52-43.349 14.255-10.654 22.857-4.871 30.079 4.796 7.226 9.671 10.336 19.565-3.919 30.217z" />
<glyph unicode="&#xe9af;" d="M736.49 364.325c-26.5 3.762-56.463-53.016-60.261-79.76-5.546-39.044 13.688-57.866 40.181-61.629 26.498-3.764 50.212 8.959 55.755 48.003 4.078 28.752-9.176 89.621-35.676 93.385z" />
<glyph unicode="&#xe9b0;" d="M737.446 365.184c-7.506 1.067-25.202-22.071-27.701-39.68-2.503-17.623 6.695-22.391 18.645-24.087 11.95-1.699 22.127 0.32 24.628 17.941 2.501 17.611-8.367 44.804-15.572 45.826z" />
<glyph unicode="&#xe9b1;" d="M730.222 384.848c-5.715 26.145-69.379 34.423-95.765 28.655-38.53-8.423-49.46-33.007-43.741-59.154 5.713-26.143 25.908-43.927 64.434-35.509 28.366 6.202 80.79 39.861 75.073 66.008z" />
<glyph unicode="&#xe9b2;" d="M731.363 384.252c-1.62 7.409-29.474 15.916-46.852 12.121-17.386-3.8-18.649-14.084-16.071-25.879 2.578-11.789 8.022-20.62 25.408-16.818 17.374 3.797 39.069 23.47 37.515 30.576z" />
<glyph unicode="&#xe9b3;" d="M769.235 389.876c-5.455 13.512-21.41 19.821-35.622 14.084-14.199-5.733-21.295-21.353-15.838-34.865 5.459-13.514 21.408-19.827 35.608-14.092 14.212 5.738 21.311 21.359 15.852 34.873z" />
<glyph unicode="&#xe9b4;" d="M760.482 386.34c-3.354 8.305-13.679 11.972-23.057 8.187-9.368-3.783-14.249-13.591-10.895-21.895 3.354-8.309 13.679-11.977 23.047-8.194 9.378 3.785 14.259 13.595 10.905 21.902z" />
<glyph unicode="&#xe9b5;" d="M545.36 566.914l184.626 384.016c2.672 5.546 8.266 9.070 14.422 9.070h257.922c5.5 0 10.61-2.828 13.546-7.484 2.922-4.656 3.25-10.492 0.876-15.446l-244.782-509.148c-1.984-4.118-5.626-7.196-10.016-8.454-1.438-0.414-2.922-0.618-4.406-0.618-3 0-5.968 0.844-8.562 2.476l-197.766 125.132c-6.86 4.346-9.374 13.144-5.86 20.456z" />
<glyph unicode="&#xe9b6;" d="M883.964 960h118.366c5.5 0 10.61-2.828 13.546-7.484 2.922-4.656 3.25-10.492 0.876-15.446l-244.782-509.148c-1.984-4.118-5.626-7.196-10.016-8.454-1.438-0.414-2.922-0.618-4.406-0.618-3 0-5.968 0.844-8.562 2.476l-95.076 60.158 230.054 478.516z" />
<glyph unicode="&#xe9b7;" d="M478.638 566.914l-184.624 384.016c-2.672 5.546-8.266 9.070-14.422 9.070h-257.922c-5.5 0-10.61-2.828-13.546-7.484-2.922-4.656-3.25-10.492-0.876-15.446l244.782-509.148c1.984-4.118 5.626-7.196 10.016-8.454 1.438-0.414 2.922-0.618 4.406-0.618 3 0 5.968 0.844 8.562 2.476l197.766 125.132c6.858 4.346 9.374 13.144 5.858 20.456z" />
<glyph unicode="&#xe9b8;" d="M140.036 960h-118.366c-5.5 0-10.61-2.828-13.546-7.484-2.922-4.656-3.25-10.492-0.876-15.446l244.782-509.148c1.984-4.118 5.626-7.196 10.016-8.454 1.438-0.414 2.922-0.618 4.406-0.618 3 0 5.968 0.844 8.562 2.476l95.076 60.158-230.054 478.516z" />
<glyph unicode="&#xe9b9;" d="M832.218 256c0-176.731-143.269-320-320-320s-320 143.269-320 320c0 176.731 143.269 320 320 320s320-143.269 320-320z" />
<glyph unicode="&#xe9ba;" d="M512.218-64c88.366 0 168.366 35.818 226.272 93.726l-452.546 452.548c-57.91-57.908-93.726-137.908-93.726-226.274 0-176.73 143.268-320 320-320z" />
<glyph unicode="&#xe9bb;" d="M595.888 97.586c-5.25 0-10.532 1.266-15.406 3.828l-68.266 35.882-68.266-35.882c-11.218-5.882-24.578-4.906-34.796 2.524-10.266 7.454-15.296 19.844-13.156 32.336l13.032 76-55.234 53.82c-9.078 8.86-12.282 21.844-8.36 33.898s14.14 20.688 26.688 22.516l76.312 11.086 34.14 69.148c5.594 11.36 16.954 18.422 29.624 18.43h0.016c12.688 0 24.046-7.062 29.656-18.43l34.126-69.148 76.296-11.086c12.562-1.828 22.782-10.46 26.704-22.516s0.718-25.040-8.36-33.89l-55.234-53.828 13.046-76c2.14-12.492-2.89-24.882-13.156-32.336-5.796-4.212-12.578-6.352-19.406-6.352zM376.138 289.016l61.25-59.696c3.766-3.68 5.484-8.976 4.594-14.164l-14.454-84.29 8.984-15.29-7.438 14.164 75.704 39.796c4.656 2.454 10.218 2.454 14.874 0l75.704-39.796 17.328 3.828-15.766-2.704-14.468 84.29c-0.89 5.188 0.828 10.484 4.594 14.164l61.25 59.696 1.704 17.656-2.296-15.836-84.626 12.296c-5.218 0.758-9.718 4.032-12.046 8.758l-37.844 76.688c0-0.016-0.954-0.008-1.532 0-0.234 0-0.39 0-0.39 0l-37.86-76.696c-2.328-4.718-6.828-7.992-12.046-8.75l-84.624-12.296-11.766-13.282 11.17 11.464z" />
<glyph unicode="&#xe9bc;" d="M768.264 240c-4.172 0-8.328 1.766-11.376 4.64-3.032 3.040-4.626 7.204-4.626 11.36 0 4.164 1.594 8.32 4.626 11.36 5.922 5.922 16.64 5.922 22.562 0 3.046-3.040 4.812-7.196 4.812-11.36 0-4.156-1.766-8.32-4.812-11.36-2.874-2.874-7.030-4.64-11.186-4.64z" />
<glyph unicode="&#xe9bd;" d="M512.264 496c-4.328 0-8.328 1.766-11.374 4.64-3.032 3.040-4.626 7.204-4.626 11.36 0 4.164 1.594 8.32 4.626 11.36 5.922 5.922 16.64 5.922 22.562 0 3.046-3.040 4.812-7.196 4.812-11.36 0-4.156-1.766-8.32-4.812-11.36-2.876-2.874-7.032-4.64-11.188-4.64z" />
<glyph unicode="&#xe9be;" d="M331.138 420.962c-4.156 0-8.328 1.766-11.204 4.804-3.046 2.876-4.796 7.040-4.796 11.196 0 4.32 1.75 8.484 4.796 11.36 5.766 5.922 16.64 5.922 22.562 0 3.032-3.040 4.64-7.040 4.64-11.36 0-4.156-1.61-8.32-4.64-11.196-3.044-3.040-7.044-4.804-11.358-4.804z" />
<glyph unicode="&#xe9bf;" d="M693.216 59.040c-4.156 0-8.328 1.602-11.36 4.64-2.876 2.882-4.64 7.046-4.64 11.36 0 4.164 1.766 8.32 4.64 11.204 6.078 6.078 16.64 6.078 22.718 0 2.876-2.882 4.64-7.040 4.64-11.204 0-4.312-1.766-8.312-4.64-11.36-3.044-3.040-7.2-4.64-11.358-4.64z" />
<glyph unicode="&#xe9c0;" d="M693.216 420.962c-4.156 0-8.328 1.766-11.36 4.64-2.876 3.040-4.64 7.204-4.64 11.36 0 4.32 1.766 8.484 4.64 11.36 5.922 5.922 16.64 5.922 22.718 0 2.876-2.876 4.64-7.040 4.64-11.36 0-4.156-1.766-8.32-4.64-11.36-3.044-2.876-7.2-4.64-11.358-4.64z" />
<glyph unicode="&#xe9c1;" d="M748.732 337.922c-4.156 0-8.312 1.758-11.36 4.804-2.876 2.876-4.64 7.040-4.64 11.196 0 4.32 1.766 8.484 4.64 11.36 6.078 5.922 16.64 5.922 22.718 0 2.89-2.876 4.64-7.040 4.64-11.36 0-4.156-1.75-8.32-4.64-11.196-3.030-3.046-7.202-4.804-11.358-4.804z" />
<glyph unicode="&#xe9c2;" d="M414.17 476.484c-4.156 0-8.312 1.758-11.188 4.796-3.046 2.882-4.812 7.040-4.812 11.204 0 4.156 1.766 8.32 4.812 11.36 5.906 5.922 16.64 5.922 22.546 0 3.046-3.040 4.64-7.040 4.64-11.36 0-4.164-1.594-8.32-4.64-11.36-3.030-2.882-7.030-4.64-11.358-4.64z" />
<glyph unicode="&#xe9c3;" d="M748.732 142.086c-4.156 0-8.312 1.594-11.36 4.64-2.876 3.040-4.64 7.040-4.64 11.36 0 4.156 1.766 8.32 4.64 11.196 5.922 6.078 16.796 6.078 22.718 0 2.89-2.876 4.64-7.040 4.64-11.196 0-4.32-1.75-8.32-4.64-11.36-3.030-3.046-7.202-4.64-11.358-4.64z" />
<glyph unicode="&#xe9c4;" d="M610.17 476.484c-4.156 0-8.312 1.758-11.36 4.64-2.876 3.040-4.64 7.196-4.64 11.36 0 4.32 1.766 8.476 4.64 11.36 5.922 5.922 16.64 5.922 22.718 0 2.89-3.040 4.64-7.040 4.64-11.36 0-4.164-1.75-8.32-4.64-11.36-3.030-2.882-7.186-4.64-11.358-4.64z" />
<glyph unicode="&#xe9c5;" d="M763.138 291.040c-4.328 0-8.484 1.766-11.36 4.64-3.046 3.046-4.64 7.204-4.64 11.36 0 4.164 1.594 8.32 4.64 11.368 5.922 5.914 16.64 5.914 22.562 0 3.032-3.046 4.796-7.204 4.796-11.368 0-4.156-1.766-8.312-4.796-11.36-2.888-2.876-7.046-4.64-11.202-4.64z" />
<glyph unicode="&#xe9c6;" d="M461.216 490.882c-4.328 0-8.328 1.758-11.36 4.64-3.046 3.040-4.64 7.040-4.64 11.36 0 4.156 1.594 8.32 4.64 11.36 5.922 5.922 16.64 5.922 22.718 0 2.876-3.040 4.64-7.204 4.64-11.36s-1.766-8.32-4.64-11.36c-3.044-2.882-7.2-4.64-11.358-4.64z" />
<glyph unicode="&#xe9c7;" d="M725.702 98.726c-4.172 0-8.328 1.758-11.36 4.632-2.89 3.046-4.64 7.046-4.64 11.368 0 4.156 1.75 8.312 4.64 11.36 5.922 5.914 16.796 5.914 22.718 0 2.876-3.046 4.64-7.204 4.64-11.36 0-4.32-1.766-8.32-4.64-11.368-3.046-2.874-7.202-4.632-11.358-4.632z" />
<glyph unicode="&#xe9c8;" d="M653.53 453.446c-4.156 0-8.312 1.758-11.36 4.64-2.876 3.040-4.64 7.196-4.64 11.36 0 4.32 1.766 8.32 4.64 11.36 5.922 5.922 16.812 5.922 22.562 0 3.046-2.882 4.796-7.040 4.796-11.36 0-4.164-1.75-8.32-4.796-11.36-2.874-2.882-7.030-4.64-11.202-4.64z" />
<glyph unicode="&#xe9c9;" d="M724.42 383.204c-4.156 0-8.328 1.602-11.36 4.64-2.89 2.882-4.64 7.040-4.64 11.36 0 4.156 1.75 8.32 4.64 11.36 6.078 5.922 16.64 5.922 22.718 0 3.032-3.040 4.64-7.204 4.64-11.36 0-4.32-1.61-8.476-4.64-11.36-3.046-3.040-7.046-4.64-11.358-4.64z" />
<glyph unicode="&#xe9ca;" d="M369.060 452.32c-4.328 0-8.328 1.602-11.36 4.64-2.89 2.882-4.64 7.040-4.64 11.204 0 4.32 1.75 8.476 4.64 11.36 5.922 5.922 16.796 5.922 22.718 0 2.876-2.882 4.64-7.040 4.64-11.36 0-4.164-1.766-8.32-4.64-11.204-3.044-3.038-7.202-4.64-11.358-4.64z" />
<glyph unicode="&#xe9cb;" d="M763.452 191.204c-4.156 0-8.312 1.602-11.36 4.64-2.876 3.040-4.64 7.040-4.64 11.36 0 4.156 1.766 8.32 4.64 11.36 6.078 5.922 16.64 5.922 22.718 0 3.046-3.040 4.64-7.204 4.64-11.36 0-4.32-1.594-8.32-4.64-11.36-3.030-3.040-7.030-4.64-11.358-4.64z" />
<glyph unicode="&#xe9cc;" d="M561.060 491.36c-4.328 0-8.328 1.602-11.36 4.64-2.89 3.040-4.64 7.040-4.64 11.36 0 4.164 1.75 8.32 4.64 11.204 5.922 6.078 16.64 6.078 22.718 0 2.876-2.882 4.64-7.040 4.64-11.204 0-4.32-1.766-8.476-4.64-11.36-3.044-3.038-7.202-4.64-11.358-4.64z" />
<glyph unicode="&#xe9cd;" d="M595.888 97.586c6.828 0 13.61 2.14 19.406 6.352 10.266 7.454 15.296 19.844 13.156 32.336l-0.724 4.216-39.186 39.186 8.378-48.808 15.766 2.704-17.328-3.828-75.704 39.796c-4.656 2.454-10.218 2.454-14.874 0l-75.704-39.796 7.438-14.164-8.984 15.29 14.454 84.29c0.89 5.188-0.828 10.484-4.594 14.164l-61.25 59.696-11.172-11.46 11.766 13.282 84.624 12.296c1.018 0.148 1.976 0.466 2.928 0.798l-27.91 27.912-64.252-9.334c-12.546-1.828-22.766-10.46-26.688-22.516s-0.718-25.040 8.36-33.898l55.234-53.82-13.032-76c-2.14-12.492 2.89-24.882 13.156-32.336 10.218-7.43 23.578-8.406 34.796-2.524l68.266 35.882 68.266-35.882c4.878-2.568 10.158-3.834 15.408-3.834z" />
<glyph unicode="&#xe9ce;" d="M256.264 240c-4.172 0-8.328 1.766-11.376 4.64-2.876 3.040-4.624 7.204-4.624 11.36 0 4.164 1.75 8.32 4.624 11.36 5.922 5.922 16.64 5.922 22.562 0 3.046-3.040 4.812-7.196 4.812-11.36 0-4.156-1.766-8.32-4.812-11.36-2.874-2.874-7.030-4.64-11.186-4.64z" />
<glyph unicode="&#xe9cf;" d="M512.264-16c-4.172 0-8.328 1.766-11.374 4.64-3.032 3.040-4.626 7.204-4.626 11.36 0 4.164 1.594 8.32 4.626 11.36 6.094 5.922 16.64 5.922 22.562 0 3.046-3.040 4.812-7.196 4.812-11.36 0-4.156-1.766-8.32-4.812-11.36-2.876-2.874-7.032-4.64-11.188-4.64z" />
<glyph unicode="&#xe9d0;" d="M331.138 59.040c-4.156 0-8.328 1.602-11.204 4.64-3.046 3.046-4.796 7.204-4.796 11.36 0 4.164 1.75 8.32 4.796 11.204 5.922 5.922 16.64 6.078 22.562 0 3.032-2.882 4.64-7.040 4.64-11.204 0-4.156-1.61-8.312-4.64-11.36-2.872-3.040-7.044-4.64-11.358-4.64z" />
<glyph unicode="&#xe9d1;" d="M275.78 142.086c-4.328 0-8.484 1.594-11.36 4.64-3.046 3.040-4.64 7.196-4.64 11.36 0 4.156 1.594 8.32 4.64 11.196 5.922 6.078 16.64 6.078 22.562 0 3.032-2.876 4.796-7.040 4.796-11.196 0-4.164-1.766-8.32-4.796-11.36-2.89-3.046-7.046-4.64-11.202-4.64z" />
<glyph unicode="&#xe9d2;" d="M610.17 3.524c-4.156 0-8.312 1.602-11.36 4.64-2.876 2.876-4.64 7.040-4.64 11.36 0 4.156 1.766 8.32 4.64 11.36 6.078 5.922 16.64 5.922 22.718 0 2.89-3.040 4.64-7.204 4.64-11.36 0-4.164-1.75-8.32-4.64-11.36-3.030-3.038-7.186-4.64-11.358-4.64z" />
<glyph unicode="&#xe9d3;" d="M275.78 337.922c-4.328 0-8.484 1.758-11.36 4.804-3.046 2.876-4.64 7.040-4.64 11.196 0 4.32 1.594 8.484 4.64 11.36 5.922 5.922 16.64 5.922 22.562 0 3.032-3.040 4.796-7.040 4.796-11.36 0-4.156-1.766-8.32-4.796-11.196-2.89-3.046-7.046-4.804-11.202-4.804z" />
<glyph unicode="&#xe9d4;" d="M414.17 3.524c-4.156 0-8.312 1.602-11.188 4.64-3.046 3.040-4.812 7.040-4.812 11.36 0 4.156 1.766 8.32 4.812 11.204 5.906 6.078 16.64 6.078 22.546 0 3.046-2.882 4.64-7.046 4.64-11.204 0-4.32-1.594-8.32-4.64-11.36-2.874-3.038-7.030-4.64-11.358-4.64z" />
<glyph unicode="&#xe9d5;" d="M261.374 188.962c-4.156 0-8.312 1.766-11.36 4.64-2.876 3.040-4.64 7.204-4.64 11.36 0 4.164 1.766 8.32 4.64 11.36 6.078 5.922 16.64 5.922 22.718 0 2.89-3.040 4.64-7.196 4.64-11.36 0-4.156-1.75-8.32-4.64-11.36-3.030-2.876-7.202-4.64-11.358-4.64z" />
<glyph unicode="&#xe9d6;" d="M563.294-10.874c-4.312 0-8.484 1.758-11.36 4.64-3.046 3.040-4.64 7.196-4.64 11.36 0 4.156 1.594 8.32 4.64 11.36 5.922 5.922 16.64 5.922 22.562 0 3.032-3.040 4.796-7.204 4.796-11.36 0-4.164-1.766-8.32-4.796-11.36-2.872-2.882-7.044-4.64-11.202-4.64z" />
<glyph unicode="&#xe9d7;" d="M298.81 381.282c-4.312 0-8.468 1.758-11.36 4.64-3.032 3.040-4.64 7.204-4.64 11.36 0 4.32 1.61 8.32 4.64 11.36 5.922 5.922 16.64 5.922 22.562 0 3.046-3.040 4.796-7.196 4.796-11.36 0-4.156-1.75-8.32-4.796-11.36-2.874-2.882-7.030-4.64-11.202-4.64z" />
<glyph unicode="&#xe9d8;" d="M370.982 26.562c-4.328 0-8.484 1.758-11.36 4.64-3.046 3.040-4.64 7.040-4.64 11.36 0 4.164 1.594 8.32 4.64 11.204 5.906 6.078 16.64 6.078 22.546 0 3.046-2.882 4.812-7.040 4.812-11.204 0-4.32-1.766-8.32-4.812-11.36-2.872-2.882-7.030-4.64-11.186-4.64z" />
<glyph unicode="&#xe9d9;" d="M299.936 96.804c-4.156 0-8.312 1.758-11.36 4.796-2.876 2.882-4.64 7.040-4.64 11.204 0 4.32 1.766 8.32 4.64 11.36 6.078 5.922 16.796 5.922 22.718 0 3.046-3.040 4.64-7.040 4.64-11.36 0-4.164-1.594-8.32-4.64-11.204-3.030-3.038-7.030-4.796-11.358-4.796z" />
<glyph unicode="&#xe9da;" d="M655.452 27.844c-4.312 0-8.468 1.602-11.36 4.64-3.032 2.876-4.64 7.040-4.64 11.36 0 4.156 1.61 8.32 4.64 11.196 5.766 5.922 16.64 6.086 22.562 0 3.046-2.876 4.796-7.040 4.796-11.196 0-4.32-1.75-8.484-4.796-11.36-2.874-3.038-7.030-4.64-11.202-4.64z" />
<glyph unicode="&#xe9db;" d="M260.888 288.804c-4.156 0-8.312 1.758-11.36 4.796-2.876 2.882-4.64 7.040-4.64 11.204 0 4.32 1.766 8.32 4.64 11.36 5.922 5.922 16.812 5.922 22.734 0 3.032-3.040 4.626-7.040 4.626-11.36 0-4.164-1.594-8.32-4.626-11.204-3.046-3.038-7.202-4.796-11.374-4.796z" />
<glyph unicode="&#xe9dc;" d="M463.296-11.36c-4.156 0-8.312 1.766-11.204 4.804-3.032 2.876-4.64 7.040-4.64 11.196 0 4.32 1.61 8.484 4.64 11.36 5.922 5.922 16.64 5.922 22.562 0 3.046-2.876 4.64-7.040 4.64-11.36 0-4.156-1.594-8.32-4.64-11.196-2.874-3.038-7.030-4.804-11.358-4.804z" />
<glyph unicode="&#xe9dd;" d="M319.92 448.298c-3.034-2.876-4.782-7.026-4.782-11.336 0-4.156 1.75-8.32 4.796-11.196 2.876-3.040 7.046-4.804 11.204-4.804 4.3 0 8.288 1.76 11.332 4.786l-22.55 22.55z" />
<glyph unicode="&#xe9de;" d="M693.216 59.040c4.146 0 8.29 1.598 11.336 4.626l-22.624 22.624c-0.020-0.020-0.050-0.026-0.072-0.046-2.876-2.882-4.64-7.040-4.64-11.204 0-4.312 1.766-8.476 4.64-11.36 3.032-3.040 7.204-4.64 11.36-4.64z" />
<glyph unicode="&#xe9df;" glyph-name="menu-1" d="M512 960c-282.313 0-512-229.687-512-512s229.687-512 512-512 512 229.687 512 512-229.687 512-512 512zM512-27.429c-262.162 0-475.429 213.285-475.429 475.429s213.266 475.429 475.429 475.429 475.429-213.285 475.429-475.429-213.266-475.429-475.429-475.429zM731.429 667.429h-438.857c-10.112 0-18.286-8.192-18.286-18.286s8.174-18.286 18.286-18.286h438.857c10.112 0 18.286 8.192 18.286 18.286s-8.174 18.286-18.286 18.286zM731.429 466.286h-438.857c-10.112 0-18.286-8.192-18.286-18.286s8.174-18.286 18.286-18.286h438.857c10.112 0 18.286 8.192 18.286 18.286s-8.174 18.286-18.286 18.286zM731.429 265.143h-438.857c-10.112 0-18.286-8.192-18.286-18.286s8.174-18.286 18.286-18.286h438.857c10.112 0 18.286 8.192 18.286 18.286s-8.174 18.286-18.286 18.286z" />
<glyph unicode="&#xe9e0;" d="M52.966 33.545h88.276v-52.966h-88.276v52.966z" />
<glyph unicode="&#xe9e1;" d="M882.759 33.545h88.276v-52.966h-88.276v52.966z" />
<glyph unicode="&#xe9e2;" d="M1024 368.993c0-126.759-102.758-229.517-229.517-229.517s-229.517 102.758-229.517 229.517c0 126.759 102.758 229.517 229.517 229.517s229.517-102.758 229.517-229.517z" />
<glyph unicode="&#xe9e3;" d="M281.6 739.752h-210.979c-19.509 0-35.31 15.801-35.31 35.31v0c0 19.509 15.801 35.31 35.31 35.31l213.804-32.892c9.039-1.395 15.713-9.163 15.713-18.326v-0.883c0-10.222-8.298-18.52-18.538-18.52z" />
<glyph unicode="&#xe9e4;" d="M141.241 157.131c-12.394 0-24.258 2.242-35.31 6.162v-76.782h70.621v76.782c-11.052-3.919-22.916-6.162-35.31-6.162z" />
<glyph unicode="&#xe9e5;" d="M141.241 368.993c12.394 0 24.258-2.242 35.31-6.162v376.92h-70.621v-376.92c11.052 3.919 22.916 6.162 35.31 6.162z" />
<glyph unicode="&#xe9e6;" d="M794.483 139.476c-12.041 0-23.764 1.201-35.31 2.984v-55.949h70.621v55.949c-11.546-1.783-23.27-2.984-35.31-2.984z" />
<glyph unicode="&#xe9e7;" d="M847.448 368.993c0-29.252-23.713-52.966-52.966-52.966s-52.966 23.713-52.966 52.966c0 29.252 23.713 52.966 52.966 52.966s52.966-23.713 52.966-52.966z" />
<glyph unicode="&#xe9e8;" d="M245.442 244.506c-0.865-4.89-2.013-9.657-3.531-14.283-0.23-0.706-0.512-1.377-0.759-2.066-1.536-4.378-3.319-8.598-5.385-12.694-0.265-0.53-0.494-1.077-0.777-1.589-2.313-4.396-4.943-8.563-7.839-12.57-0.441-0.6-0.883-1.201-1.342-1.783-6.126-8.139-13.383-15.36-21.575-21.433-0.388-0.282-0.759-0.583-1.165-0.865-4.22-3.037-8.633-5.791-13.277-8.192-0.141-0.071-0.282-0.124-0.406-0.194-4.785-2.454-9.781-4.573-14.954-6.285l579.001 173.374c-7.327 9.057-11.917 20.48-11.917 33.068h-600.276c58.509 0 105.931-47.422 105.931-105.931 0-5.261-0.512-10.381-1.254-15.431-0.141-1.042-0.282-2.101-0.477-3.125z" />
<glyph unicode="&#xe9e9;" d="M794.483 598.51c12.041 0 23.764-1.201 35.31-2.984v73.604h-70.621v-73.604c11.546 1.783 23.27 2.984 35.31 2.984z" />
<glyph unicode="&#xe9ea;" d="M794.483 669.131v104.678l105.931 105.931h70.621" />
<glyph unicode="&#xe9eb;" d="M971.034 915.050h35.31l17.655-17.655v-35.31l-17.655-17.655h-35.31l-17.655 17.655v35.31z" />
<glyph unicode="&#xe9ec;" d="M834.083 902.938l-74.911-74.911" />
<glyph unicode="&#xe9ed;" d="M247.172 263.062c0-58.504-47.427-105.931-105.931-105.931s-105.931 47.427-105.931 105.931c0 58.504 47.427 105.931 105.931 105.931s105.931-47.427 105.931-105.931z" />
<glyph unicode="&#xe9ee;" d="M0 86.51h1024v-52.966h-1024v52.966z" />
<glyph unicode="&#xe9ef;" glyph-name="menu" d="M31.999 640h959.999c17.665 0 31.999 14.337 31.999 31.999 0 17.665-14.337 31.999-31.999 31.999h-959.999c-17.665 0-31.999-14.337-31.999-31.999s14.337-31.999 31.999-31.999zM991.998 479.999h-959.999c-17.665 0-31.999-14.337-31.999-31.999s14.337-31.999 31.999-31.999h959.999c17.665 0 31.999 14.337 31.999 31.999s-14.334 31.999-31.999 31.999zM991.998 256h-639.999c-17.665 0-31.999-14.337-31.999-31.999 0-17.665 14.337-31.999 31.999-31.999h639.999c17.665 0 31.999 14.337 31.999 31.999 0.003 17.665-14.334 31.999-31.999 31.999z" />
<glyph unicode="&#xe9f0;" glyph-name="medical-2" d="M872.174 109.022c0 29.96-48.554 56.842-125.159 75.010v102.103c0 42.287-34.21 76.497-76.497 76.497h-86.591c-14.767 0-25.71 14.026-21.78 28.369 6.695 24.328 25.819 38.355 43.242 54.823 16.468 15.618 25.924 33.893 36.231 53.867 4.993 9.668 12.218 14.131 19.336 21.78 7.757 8.392 14.663 17.637 20.187 27.624 11.476 20.612 17.638 44.092 17.638 67.679 0 26.030-7.118 50.361-19.549 71.185 0.107 13.068-1.275 40.055-12.111 68.741-12.112 32.086-38.887 72.46-97.215 89.459-25.18 25.18-60.029 40.692-98.278 40.692-76.817 0-139.395-62.473-139.395-139.395 0-9.562 0.955-18.806 2.762-27.836-7.118-20.93-10.412-43.030-9.668-66.191 1.169-38.036 13.068-75.010 30.28-108.69 8.181-15.937 11.049-32.829 18.168-49.404 8.607-20.079 21.037-38.567 37.399-53.123 16.468-14.555 33.786-29.111 39.949-51.318 3.931-14.235-6.906-28.367-21.78-28.367h-75.966c-42.286 0-76.497-34.21-76.497-76.497v-102.103c-76.603-18.168-125.158-45.048-125.158-75.010 0-31.343 52.911-59.18 135.358-77.348 3.612-0.743 5.206 4.25 1.806 5.737-45.898 19.124-73.735 44.198-73.735 71.716 0 24.968 23.055 48.022 61.729 66.298v-66.298c0-29.431 105.184-53.337 235.016-53.337s235.015 23.905 235.015 53.337v66.404c38.674-18.382 61.729-41.33 61.729-66.298 0-27.518-27.835-52.592-73.734-71.716-3.4-1.382-1.806-6.481 1.806-5.737 82.658 18.167 135.463 46.005 135.463 77.347zM471.626 860.287c14.449 0 28.367-2.762 41.116-7.756-28.686-1.912-58.754-10.943-85.634-25.818-26.562-14.768-49.086-34.424-66.191-57.692 10.094 51.954 55.887 91.265 110.71 91.265zM352.418 675.312c0.744 7.65 2.018 14.874 3.611 21.674 1.806 7.543 4.038 14.556 6.695 21.037 3.080 7.65 6.481 14.662 10.2 20.93 15.299 26.349 38.567 48.661 67.041 64.491 26.562 14.768 56.523 22.843 84.147 22.843 8.712 0 17.212-0.85 25.18-2.444 2.231-0.425 4.462-0.956 6.587-1.487 7.861-1.912 15.298-4.356 22.204-7.331 7.65-3.187 14.663-7.012 21.143-11.475 19.443-13.281 33.786-31.98 43.030-55.992 3.187-8.393 5.419-16.681 7.012-24.437s2.55-14.981 2.976-21.143c0.211-2.975 0.424-5.631 0.424-8.075h-142.687c-13.068 0-24.862-1.275-35.699-3.612-7.65-1.594-14.663-3.719-21.249-6.269-7.437-2.869-14.237-6.269-20.507-10.093-9.455-5.737-17.637-12.537-24.648-19.656-1.062-1.062-2.019-2.125-3.081-3.187-2.019-2.231-4.037-4.569-5.844-6.8-2.762-3.506-5.419-7.118-7.756-10.731-4.144-6.375-7.756-12.75-10.732-19.018-5.524-11.687-9.455-23.268-12.218-33.786-0.424 1.062-0.85 2.125-1.274 3.187-13.706 35.275-16.999 65.555-14.556 91.372zM524.75 467.176h-35.061c-3.507 0-6.056 2.337-4.994 4.675 2.444 5.525 7.012 9.775 15.193 11.050 0.956 0.106 2.019 0 2.975-0.425l2.232-1.062c1.381-0.637 3.080-0.637 4.461 0l2.232 1.062c0.955 0.425 1.912 0.637 2.975 0.425 8.181-1.17 12.75-5.525 15.193-11.050 0.849-2.337-1.595-4.675-5.207-4.675zM529.743 448.796c-2.975-6.587-11.899-11.368-22.63-11.368s-19.656 4.781-22.63 11.368c-1.062 2.337 1.487 4.675 4.994 4.675h35.061c3.825-0.106 6.269-2.443 5.206-4.675zM588.71 667.663h71.291c7.756-15.299 12.111-32.618 12.111-50.892 0-25.074-8.18-48.236-22.099-67.041v0.107c0.107 48.766-24.117 91.796-61.303 117.826zM1024 107.959c0-39.525-75.010-74.904-193.155-98.597-7.65-1.487-11.793 6.269-4.781 9.031 63.323 24.437 121.652 55.673 121.652 89.567s-58.223 65.128-121.652 89.564c-7.012 2.656-2.869 10.518 4.781 9.031 118.146-23.692 193.155-59.073 193.155-98.595zM193.155 9.362c-118.146 23.694-193.155 59.073-193.155 98.597 0 39.522 75.010 74.904 193.155 98.595 7.65 1.487 11.793-6.266 4.781-9.031-63.323-24.437-121.546-55.566-121.546-89.564s58.223-65.13 121.652-89.567c7.012-2.762 2.762-10.625-4.887-9.031zM844.763 361.356c0 0-1.169 0.849-3.187 2.762-14.131 13.492-23.798 32.299-27.943 51.21-0.531 2.233-0.85 4.463-1.275 6.695-5.631 37.824 10.732 75.435 40.374 99.021 14.237 11.262 29.855 19.549 41.223 34.105 19.867 25.287 24.543 61.835 25.71 93.072 0.107 1.912 0.107 3.506 0.212 4.781 0.107 2.656 0.107 4.144 0.107 4.144s1.169-0.956 3.080-2.869c0.956-0.956 2.125-2.231 3.4-3.719 17.849-20.187 27.305-48.448 26.668-75.222-0.424-18.168-5.419-36.124-14.449-51.848-8.712-15.406-20.399-26.985-34.742-37.398-11.262-8.181-23.055-15.831-32.618-25.924-17.423-18.381-23.586-42.498-25.818-67.149-0.531-5.524-0.85-10.942-0.955-16.468 0.106-2.019 0.212-15.193 0.212-15.193zM121.546 361.356c0 0-1.169 0.849-3.187 2.762-14.131 13.492-23.799 32.299-27.943 51.21-0.531 2.233-0.85 4.463-1.275 6.695-5.631 37.824 10.731 75.435 40.374 99.021 14.237 11.263 29.855 19.549 41.223 34.106 19.868 25.287 24.543 61.835 25.712 93.072 0.106 1.912 0.106 3.506 0.212 4.781 0.106 2.656 0.106 4.144 0.106 4.144s1.169-0.956 3.081-2.869c0.956-0.956 2.125-2.231 3.4-3.719 17.849-20.187 27.305-48.448 26.668-75.222-0.425-18.168-5.419-36.124-14.449-51.848-8.712-15.406-20.399-26.985-34.742-37.398-11.262-8.181-23.055-15.831-32.618-25.924-17.424-18.381-23.587-42.498-25.818-67.149-0.531-5.524-0.85-10.942-0.956-16.468 0.212-2.020 0.212-15.194 0.212-15.194zM121.546 376.656c0.106 5.524 0.425 11.047 0.956 16.468 2.231 24.543 8.393 48.66 25.818 67.146 9.562 10.093 21.355 17.743 32.618 25.924 14.343 10.306 26.030 21.887 34.742 37.399 8.925 15.83 14.024 33.786 14.449 51.848 0.637 26.774-8.925 55.035-26.668 75.222-1.275 1.487-2.444 2.656-3.4 3.719-1.912 1.912-3.081 2.869-3.081 2.869s0-1.381-0.106-4.144c0-1.275-0.106-2.869-0.212-4.781-1.169-31.236-5.737-67.785-25.712-93.072-11.368-14.449-27.093-22.843-41.223-34.105-29.749-23.587-46.111-61.199-40.374-99.022 0.319-2.231 0.744-4.461 1.275-6.692 4.144-18.913 13.812-37.826 27.943-51.212 1.912-1.911 3.187-2.762 3.187-2.762-0.212-0.104-0.212 13.070-0.212 15.195z" />
<glyph unicode="&#xe9f1;" glyph-name="null" d="M311.009 294.122c-67.493-0.061-137.104-38.673-124.213-63.472 14.671-28.36 126.024-9.238 165.28-19.95 55.738-15.224 115.435-48.494 139.897-81.765-31.368 97.787-105.614 165.188-180.964 165.188zM413.062 317.326c-17.004 75.657-181.609 160.492-196.402 169.055-70.133 40.484-118.842 87.474-118.842 87.474s65.007-18.692 135.079-59.268c14.825-8.533 28.452-17.403 41.159-26.089-11.080 32.135-38.949 95.239-95.301 127.712-77.346 44.689-178.754 14.057-178.754 14.057s24.186-103.158 101.531-147.816c56.321-32.534 247.598-66.634 311.531-165.127zM268.776 395.531c-8.44-5.77-17.526-11.633-27.409-17.372-46.806-26.979-90.206-39.501-90.206-39.501s32.534 31.337 79.31 58.377c9.914 5.709 19.613 10.62 28.82 15.039-22.314 4.328-68.076 9.238-105.644-12.461-51.686-29.803-67.769-98.616-67.769-98.616s67.647-20.503 119.333 9.3c37.568 21.761 56.168 63.841 63.565 85.234zM712.96 294.122c-75.351 0-149.565-67.37-180.964-165.219 24.493 33.209 84.129 66.48 139.897 81.704 39.225 10.804 150.64-8.318 165.311 19.95 12.86 24.953-56.751 63.503-124.244 63.565zM845.215 616.211c-56.382-32.534-84.221-95.577-95.27-127.712 12.707 8.625 26.273 17.495 41.128 26.089 70.071 40.514 135.109 59.268 135.109 59.268s-48.74-46.929-118.873-87.474c-14.763-8.502-179.429-93.398-196.372-169.055 63.933 98.493 255.179 132.592 311.531 165.127 77.376 44.658 101.562 147.816 101.562 147.816s-101.439 30.631-178.816-14.057zM870.291 399.613c-37.599 21.7-83.331 16.789-105.614 12.461 9.238-4.481 18.907-9.423 28.82-15.039 46.745-27.040 79.31-58.377 79.31-58.377s-43.399 12.523-90.206 39.501c-9.822 5.77-18.937 11.633-27.409 17.372 7.366-21.393 25.997-63.472 63.534-85.234 51.717-29.803 119.364-9.3 119.364-9.3s-16.114 68.813-67.8 98.616zM857.124 721.487c-170.774 31.276-345.109-174.304-345.109-174.304s-210.552 191.031-345.139 174.304c258.617-135.784 345.139-636.781 345.139-636.781s25.414 450.17 345.109 636.781zM598.569 724.71c0-47.802-38.751-86.553-86.553-86.553s-86.553 38.751-86.553 86.553c0 47.802 38.751 86.553 86.553 86.553s86.553-38.751 86.553-86.553z" />
<glyph unicode="&#xe9f2;" d="M1024 448c0-282.77-229.23-512-512-512s-512 229.23-512 512c0 282.77 229.23 512 512 512s512-229.23 512-512z" />
<glyph unicode="&#xe9f3;" d="M616.432 665.194c-31.086 31.086-71.721 46.527-112.559 46.527-40.635 0-81.473-15.441-112.559-46.527-62.171-62.171-62.171-162.946 0-225.117l255.594-255.797 225.117 225.117-255.594 255.797zM464.863 591.644c-10.159-10.159-26.819-10.159-36.978 0s-10.159 26.616 0 36.775 26.819 10.159 36.978 0 10.159-26.616 0-36.775z" />
<glyph unicode="&#xe9f4;" d="M819.783 410.668l-173.977-173.977-105.879 105.879 173.977 173.977 105.879-105.879z" />
<glyph unicode="&#xe9f5;" d="M318.171 361.651l-16.254-16.254 16.254-31.695v-0.203l-20.724-20.927 20.724-32.711v-17.067l-56.076-39.213-46.73 39.213v269.816h102.806z" />
<glyph unicode="&#xe9f6;" d="M262.298 512.61h-46.933v-269.816l46.73-39.213 0.203 0.203z" />
<glyph unicode="&#xe9f7;" d="M266.768 691.81c-63.39 0-114.794-51.403-114.794-114.794s51.403-114.794 114.794-114.794 114.794 51.403 114.794 114.794-51.403 114.794-114.794 114.794zM266.768 589.613c-15.035 0-27.225 12.19-27.225 27.225s12.19 27.225 27.225 27.225c15.035 0 27.225-12.19 27.225-27.225s-12.19-27.225-27.225-27.225z" />
<glyph unicode="&#xe9f8;" d="M430.933 631.060c-1.219-0.813-2.235-1.625-3.251-2.641s-1.829-2.032-2.641-3.048c11.175-5.079 17.27-10.971 17.067-16.254-0.203-4.876-6.298-10.159-17.067-14.222-10.565-4.063-25.6-7.111-44.089-8.33-5.079-0.406-10.565-0.61-16.254-0.61-3.86 0-7.721 0-11.581 0.203-1.625 0-3.251 0.203-4.876 0.406-22.349 1.219-42.87 5.283-58.514 11.175-0.813 0.406-1.625 0.61-2.438 1.016-13.41 5.486-21.333 11.987-21.13 17.879 0.203 5.689 8.33 11.784 22.756 16.254-1.829 2.235-3.86 4.267-6.095 6.095-14.222-4.876-23.975-12.19-24.381-21.943-0.406-8.94 7.111-17.067 21.943-23.771 2.032-1.016 4.267-1.829 6.502-2.844 16.051-6.095 37.181-10.159 59.937-11.581 2.032-0.203 3.86-0.406 5.892-0.406 4.063-0.203 7.924-0.203 11.987-0.203 5.486 0 11.175 0.203 16.66 0.61 18.489 1.219 36.571 4.47 49.575 10.159 11.378 4.876 18.692 11.378 19.098 19.911 0.406 8.737-6.908 16.254-19.098 22.146zM369.778 638.578c1.625 2.438 3.251 4.876 4.876 7.111-5.689 0.61-11.581 1.219-17.27 1.422 2.032-2.641 4.063-5.283 5.689-8.127 2.438 0 4.673-0.203 6.705-0.406z" />
<glyph unicode="&#xe9f9;" d="M1024 448c0-282.77-229.23-512-512-512s-512 229.23-512 512c0 282.77 229.23 512 512 512s512-229.23 512-512z" />
<glyph unicode="&#xe9fa;" d="M373.232 196.063l-220.038 76.8 150.959 322.438 125.359-22.756z" />
<glyph unicode="&#xe9fb;" d="M373.232 196.063l232.432 77.206-43.886 322.032-132.267-22.756z" />
<glyph unicode="&#xe9fc;" d="M883.403 196.063l-277.74 77.206-43.886 322.032 138.971-22.756z" />
<glyph unicode="&#xe9fd;" d="M662.349 538.616l-95.289 17.473 30.883-226.946 178.184-47.746z" />
<glyph unicode="&#xe9fe;" d="M324.876 551.010l-111.746-244.622 167.213-51.81 42.667 278.756z" />
<glyph unicode="&#xe9ff;" d="M567.060 556.089l-144.051-22.756-42.667-278.756 217.6 74.565z" />
<glyph unicode="&#xea00;" d="M674.133 675.759c0-91.429-165.587-291.149-165.587-291.149s-165.587 199.721-165.587 291.149 74.159 165.587 165.587 165.587 165.587-73.956 165.587-165.587z" />
<glyph unicode="&#xea01;" d="M592.254 689.371c0-46.343-37.568-83.911-83.911-83.911s-83.911 37.568-83.911 83.911c0 46.343 37.568 83.911 83.911 83.911s83.911-37.568 83.911-83.911z" />
<glyph unicode="&#xea02;" d="M938.666 234.666v64c0 11.792-9.542 21.334-21.334 21.334h-22.356c-9.86 198.514-155.236 359.626-340.31 381.344v45.322h42.666c11.792 0 21.334 9.542 21.334 21.334v21.334c0 47.062-38.27 85.334-85.334 85.334h-42.666c-47.062 0-85.334-38.27-85.334-85.334v-21.334c0-11.792 9.542-21.334 21.334-21.334h42.666v-45.322c-185.072-21.72-330.45-182.83-340.308-381.344h-22.358c-11.792 0-21.334-9.542-21.334-21.334v-64c-47.062 0-85.332-38.27-85.332-85.332v-106.666c0-11.792 9.542-21.334 21.334-21.334h981.334c11.792 0 21.334 9.542 21.334 21.334v106.666c-0.002 47.062-38.272 85.332-85.336 85.332z" />
<glyph unicode="&#xea03;" d="M512 661.334c181.432 0 329.83-151.302 340.316-341.334h-680.632c10.486 190.032 158.884 341.334 340.316 341.334z" />
<glyph unicode="&#xea04;" d="M617.648 554.666c64.48 0 124.612-19.394 176.040-52.56-61.364 95.904-164.502 159.226-281.688 159.226-181.432 0-329.83-151.302-340.316-341.334h127.206c48.738 136.93 173.004 234.668 318.758 234.668z" />
<glyph unicode="&#xea05;" d="M490.666 832h42.666c23.522 0 42.668-19.146 42.668-42.666h-128c0 23.52 19.146 42.666 42.666 42.666z" />
<glyph unicode="&#xea06;" d="M981.334 64h-938.668v85.334c0 23.52 19.146 42.666 42.666 42.666h21.334c11.792 0 21.334 9.542 21.334 21.334v64h768v-64c0-11.792 9.542-21.334 21.334-21.334h21.334c23.52 0 42.666-19.146 42.666-42.666v-85.334z" />
<glyph unicode="&#xea07;" d="M938.666 192h-21.334c-11.792 0-21.334 9.542-21.334 21.334v64h-106.666v-64c0-11.792 9.542-21.334 21.334-21.334h21.334c23.52 0 42.666-19.146 42.666-42.666v-85.334h106.666v85.334c0.002 23.52-19.144 42.666-42.666 42.666z" />
<glyph unicode="&#xea08;" d="M938.666 234.666v64c0 11.792-9.542 21.334-21.334 21.334h-22.356c-9.86 198.514-155.236 359.626-340.31 381.344v45.322h42.666c11.792 0 21.334 9.542 21.334 21.334v21.334c0 47.062-38.27 85.334-85.334 85.334h-42.666c-47.062 0-85.334-38.27-85.334-85.334v-21.334c0-11.792 9.542-21.334 21.334-21.334h42.666v-45.322c-185.072-21.72-330.45-182.83-340.308-381.344h-22.358c-11.792 0-21.334-9.542-21.334-21.334v-64c-47.062 0-85.332-38.27-85.332-85.332v-106.666c0-11.792 9.542-21.334 21.334-21.334h981.334c11.792 0 21.334 9.542 21.334 21.334v106.666c-0.002 47.062-38.272 85.332-85.336 85.332z" />
<glyph unicode="&#xea09;" d="M1011.25 357.664c0-1.182-0.020-2.342-0.040-3.524-1.882-69-58.59-124.568-128.030-124.568-33.91 0-65.856 13.112-89.998 36.932-11.79 11.65-11.91 30.666-0.26 42.456 11.65 11.81 30.666 11.93 42.456 0.28 12.81-12.65 29.786-19.616 47.802-19.616 36.332 0 66.096 28.644 67.938 64.516 0.040 1.182 0.080 2.342 0.080 3.524 0 37.512-30.506 68.018-68.018 68.018-11.71 0-23.24-3.002-33.348-8.708-14.452-8.148-32.768-3.042-40.916 11.41-8.126 14.452-3.022 32.748 11.41 40.896 19.096 10.77 40.836 16.454 62.854 16.454 70.62 0 128.070-57.45 128.070-128.070z" />
<glyph unicode="&#xea0a;" d="M1011.25 357.664c0-1.182-0.020-2.342-0.040-3.524h-60.092c0.040 1.182 0.080 2.342 0.080 3.524 0 37.512-30.506 68.018-68.018 68.018-11.71 0-23.24-3.002-33.348-8.708-14.452-8.148-32.768-3.042-40.916 11.41-8.126 14.452-3.022 32.748 11.41 40.896 19.096 10.77 40.836 16.454 62.854 16.454 70.62 0 128.070-57.45 128.070-128.070z" />
<glyph unicode="&#xea0b;" d="M860.72 540.802v-170.906c0-10.55-1.342-21.098-3.964-31.306-20.378-79.068-63.134-149.828-123.626-204.656l-50.984-46.22h-349.68l-50.504 45.7c-59.412 53.766-101.848 123.086-122.706 200.452l-1.060 3.924c-2.862 10.63-4.324 21.618-4.324 32.648v170.366c0 26.742 21.758 48.482 48.502 48.482h609.864c26.722-0.004 48.482-21.742 48.482-48.484z" />
<glyph unicode="&#xea0c;" d="M860.72 540.802v-170.906c0-10.55-1.342-21.098-3.964-31.306-20.378-79.068-63.134-149.828-123.626-204.656l-50.984-46.22h-170.146v501.568h300.238c26.722 0 48.482-21.738 48.482-48.48z" />
<glyph unicode="&#xea0d;" d="M890.064 147.764v-64.436c0-70.64-57.47-128.11-128.11-128.11h-499.908c-70.64 0-128.11 57.47-128.11 128.11v64.436h756.128z" />
<glyph unicode="&#xea0e;" d="M890.064 147.764v-64.436c0-70.64-57.47-128.11-128.11-128.11h-249.954v192.546h378.064z" />
<glyph unicode="&#xea0f;" d="M1024 117.738c0-16.594-13.452-30.026-30.026-30.026h-963.948c-16.574 0-30.026 13.432-30.026 30.026 0 16.574 13.452 30.026 30.026 30.026h963.948c16.574 0 30.026-13.452 30.026-30.026z" />
<glyph unicode="&#xea10;" d="M1024 117.738c0-16.594-13.452-30.026-30.026-30.026h-481.974v60.052h481.974c16.574 0 30.026-13.452 30.026-30.026z" />
<glyph unicode="&#xea11;" d="M368.442 634.922c-4.132 0-8.33 0.856-12.338 2.668-15.114 6.824-21.832 24.608-15.008 39.722l16.68 36.942c9.358 20.724 5.718 45.164-9.266 62.266-34.208 39.038-39.056 95.052-12.062 139.386l6.368 10.458c8.624 14.166 27.098 18.656 41.262 10.032s18.656-27.098 10.032-41.262l-6.368-10.458c-13.282-21.812-10.896-49.374 5.934-68.578 30.46-34.76 37.852-84.436 18.832-126.556l-16.68-36.942c-5.014-11.104-15.946-17.678-27.386-17.678z" />
<glyph unicode="&#xea12;" d="M548.612 689.55l-16.674-36.952c-3.924-8.648-11.41-14.552-19.938-16.714-2.422-0.64-4.924-0.96-7.446-0.96-4.144 0-8.328 0.86-12.35 2.662-15.112 6.826-21.818 24.622-15.012 39.734l16.694 36.932c9.348 20.718 5.704 45.158-9.268 62.274-34.21 39.034-39.054 95.042-12.070 139.38l6.366 10.468c7.046 11.55 20.638 16.674 33.088 13.472 2.822-0.72 5.564-1.862 8.188-3.442 14.152-8.628 18.656-27.104 10.028-41.276l-6.366-10.448c-13.292-21.818-10.91-49.362 5.926-68.578 30.464-34.754 37.85-84.436 18.834-126.552z" />
<glyph unicode="&#xea13;" d="M548.612 689.55l-16.674-36.952c-3.924-8.648-11.41-14.552-19.938-16.714v303.96c2.822-0.72 5.564-1.862 8.188-3.442 14.152-8.628 18.656-27.104 10.028-41.276l-6.366-10.448c-13.292-21.818-10.91-49.362 5.926-68.578 30.466-34.752 37.852-84.434 18.836-126.55z" />
<glyph unicode="&#xea14;" d="M639.654 634.922c-4.132 0-8.33 0.856-12.338 2.668-15.112 6.824-21.832 24.608-15.008 39.722l16.68 36.942c9.356 20.724 5.718 45.164-9.266 62.266-34.208 39.038-39.056 95.052-12.062 139.386l6.368 10.458c8.624 14.166 27.098 18.656 41.262 10.032s18.656-27.098 10.032-41.262l-6.368-10.458c-13.282-21.812-10.896-49.374 5.934-68.578 30.458-34.758 37.85-84.434 18.832-126.556l-16.68-36.942c-5.018-11.104-15.946-17.678-27.386-17.678z" />
<glyph unicode="&#xea15;" d="M408.17 504.791c9.189 2.011 19.696-10.325 23.466-27.554s-0.622-32.826-9.812-34.837c-9.189-2.011-19.696 10.325-23.466 27.554s0.622 32.826 9.812 34.837z" />
<glyph unicode="&#xea16;" d="M601.449 440.99c-9.189 2.011-13.582 17.608-9.812 34.837s14.277 29.565 23.466 27.554c9.189-2.011 13.582-17.608 9.812-34.837s-14.277-29.565-23.466-27.554z" />
<glyph unicode="&#xea17;" d="M1004.84 754.562h-987.809c-10.644 0-17.031 6.387-17.031 14.901v0c0 8.516 6.387 17.031 17.031 17.031h989.937c8.516 0 17.031-6.387 17.031-17.031v0c-2.128-8.514-8.514-14.901-19.158-14.901z" />
<glyph unicode="&#xea18;" d="M449.198 386.262h123.477v-163.924h-123.477v163.924z" />
<glyph unicode="&#xea19;" d="M355.525 179.76c0 0 57.48 48.964 63.867 163.924 0 0-23.417 34.063-48.964 36.191 0 0-10.644 63.867-89.414 112.831 0 0-27.676 131.991-74.511 206.504h-46.836c0 0 25.547-204.374 48.964-236.308 0 0 48.964-93.671 59.61-119.218 0 0 25.547-46.836 48.964-55.351 0 2.128 14.903-68.126 38.32-108.574z" />
<glyph unicode="&#xea1a;" d="M161.797 690.695c0 0-31.933 14.903-29.804 57.48h100.057l-23.417-55.351-46.836-2.13z" />
<glyph unicode="&#xea1b;" d="M219.277 801.397c-8.516 0-12.773-6.387-12.773-12.773 0 6.387-6.387 12.773-12.773 12.773s-12.773-6.387-12.773-12.773c0 6.387-6.387 12.773-12.773 12.773-4.257 0-10.644-6.387-10.644-12.773 0 6.387-6.387 12.773-12.773 12.773s-10.644-6.387-10.644-12.773v-42.577c0-6.387 6.387-12.773 12.773-12.773s12.773 6.387 12.773 12.773c0-6.387 6.387-12.773 12.773-12.773s12.773 6.387 12.773 12.773c0-6.387 6.387-12.773 12.773-12.773s12.773 6.387 12.773 12.773c0-6.387 6.387-12.773 12.773-12.773s12.773 6.387 12.773 12.773v42.577c-6.389 6.387-10.646 12.773-17.033 12.773z" />
<glyph unicode="&#xea1c;" d="M200.117 724.756l17.031 8.516c0 0-27.676 19.16-23.417 29.804 2.13 6.387 4.257 6.387 27.676 0v0c19.16-4.257 27.676-23.417 17.031-40.45-8.516-12.773-19.16-27.676-29.804-31.933 0 0-23.417-2.13-19.16 14.903-0.002 10.646 6.385 17.033 10.644 19.16z" />
<glyph unicode="&#xea1d;" d="M666.345 179.76c0 0-57.48 48.964-63.867 163.924 0 0 23.417 34.063 48.964 36.191 0 0 10.644 63.867 89.414 112.831 0 0 27.676 131.991 74.511 206.504h44.707c0 0-25.547-204.374-48.964-236.308 0 0-48.964-93.671-59.61-119.218 0 0-25.547-46.836-48.964-55.351 2.13 2.128-12.773-68.126-36.191-108.574z" />
<glyph unicode="&#xea1e;" d="M857.946 690.695c0 0 31.933 14.903 29.804 57.48h-100.057l23.417-55.351 46.836-2.13z" />
<glyph unicode="&#xea1f;" d="M802.593 801.397c6.387 0 12.773-6.387 12.773-12.773 0 6.387 6.387 12.773 12.773 12.773s12.773-6.387 12.773-12.773c0 6.387 6.387 12.773 12.773 12.773s12.773-6.387 12.773-12.773c0 6.387 6.387 12.773 12.773 12.773s12.773-6.387 12.773-12.773v-42.577c0-6.387-6.387-12.773-12.773-12.773s-12.773 6.387-12.773 12.773c0-6.387-6.387-12.773-12.773-12.773s-12.773 6.387-12.773 12.773c0-6.387-6.387-12.773-12.773-12.773s-12.773 6.387-12.773 12.773c0-6.387-6.387-12.773-12.773-12.773s-12.773 6.387-12.773 12.773v42.577c2.13 6.387 6.387 12.773 12.773 12.773z" />
<glyph unicode="&#xea20;" d="M821.753 724.756l-17.031 8.516c0 0 27.676 19.16 23.417 29.804-2.13 6.387-4.257 6.387-27.676 0v0c-19.16-4.257-27.676-23.417-17.031-40.45 8.516-12.773 19.16-27.676 29.804-31.933 0 0 23.417-2.13 19.16 14.903-2.128 10.646-6.385 17.033-10.644 19.16z" />
<glyph unicode="&#xea21;" d="M921.813 652.375v0c14.903 0 27.676 12.773 27.676 27.676v180.955c0 14.903-12.773 27.676-27.676 27.676v0c-14.903 0-27.676-12.773-27.676-27.676v-180.957c0-14.901 12.773-27.674 27.676-27.674z" />
<glyph unicode="&#xea22;" d="M975.034 673.663v0c14.903 0 27.676 12.773 27.676 27.676v138.378c0 14.903-12.773 27.676-27.676 27.676v0c-14.903 0-27.676-12.773-27.676-27.676v-140.507c2.13-12.773 12.775-25.547 27.676-25.547z" />
<glyph unicode="&#xea23;" d="M100.057 652.375v0c-14.903 0-27.676 12.773-27.676 27.676v180.955c0 14.903 12.773 27.676 27.676 27.676v0c14.903 0 27.676-12.773 27.676-27.676v-180.957c0-14.901-12.773-27.674-27.676-27.674z" />
<glyph unicode="&#xea24;" d="M46.836 673.663v0c-14.903 0-27.676 12.773-27.676 27.676v138.378c0 14.903 12.773 27.676 27.676 27.676v0c14.903 0 27.676-12.773 27.676-27.676v-140.507c-2.13-12.773-12.775-25.547-27.676-25.547z" />
<glyph unicode="&#xea25;" d="M615.252 501.222c0-57.48-46.836-163.924-104.317-163.924s-104.317 106.444-104.317 163.924 46.836 104.317 104.317 104.317 104.317-46.836 104.317-104.317z" />
<glyph unicode="&#xea26;" d="M415.135 450.129l14.903 42.577c0 0-19.16 74.511 10.644 59.61 0 0 68.124-23.417 142.637 2.13 0 0 19.16 4.257 8.516-65.996l17.031-40.45c0 0 2.13 36.191 12.773 53.223 0 0 40.45 97.93-42.577 161.797 0 0-2.13-23.417-31.933-21.29 0 0-72.383 2.13-91.543-10.644 0 0-55.351-10.644-61.737-78.77 0 0-2.13-40.45 14.903-72.383-0.002 4.259 6.385-21.288 6.385-29.804z" />
<glyph unicode="&#xea27;" d="M666.345 179.76l-38.32-172.441h-234.18l-38.32 172.441c44.707 119.218 63.867 163.924 63.867 163.924s8.516 4.257 31.933 6.387c0 0 4.257-34.063 14.903-68.124 14.903-44.707 78.77-44.707 93.671 0 12.773 36.191 14.903 70.254 14.903 70.254 23.417-4.257 29.804-8.516 29.804-8.516s17.033-44.707 61.739-163.924z" />
<glyph unicode="&#xea28;" d="M487.518 471.418c0-10.582-8.578-19.16-19.16-19.16s-19.16 8.578-19.16 19.16c0 10.582 8.578 19.16 19.16 19.16s19.16-8.578 19.16-19.16z" />
<glyph unicode="&#xea29;" d="M481.131 471.418c0-7.055-5.719-12.773-12.773-12.773s-12.773 5.719-12.773 12.773c0 7.055 5.719 12.773 12.773 12.773s12.773-5.719 12.773-12.773z" />
<glyph unicode="&#xea2a;" d="M479.002 479.934c0-2.351-1.906-4.257-4.257-4.257s-4.257 1.906-4.257 4.257c0 2.351 1.906 4.257 4.257 4.257s4.257-1.906 4.257-4.257z" />
<glyph unicode="&#xea2b;" d="M574.802 471.418c0-10.582-8.578-19.16-19.16-19.16s-19.16 8.578-19.16 19.16c0 10.582 8.578 19.16 19.16 19.16s19.16-8.578 19.16-19.16z" />
<glyph unicode="&#xea2c;" d="M568.415 471.418c0-7.055-5.719-12.773-12.773-12.773s-12.773 5.719-12.773 12.773c0 7.055 5.719 12.773 12.773 12.773s12.773-5.719 12.773-12.773z" />
<glyph unicode="&#xea2d;" d="M566.286 479.934c0-2.351-1.906-4.257-4.257-4.257s-4.257 1.906-4.257 4.257c0 2.351 1.906 4.257 4.257 4.257s4.257-1.906 4.257-4.257z" />
<glyph unicode="&#xea2e;" d="M544.998 403.294c0 0 0-2.13-2.13-2.13-2.13-2.13-2.13-4.257-6.387-6.387-2.13-2.13-6.387-4.257-10.644-6.387-4.257-4.257-8.516-4.257-14.903-4.257-10.644 0-21.29 4.257-25.547 8.516-2.13 2.13-4.257 4.257-6.387 6.387-2.13 2.128-2.13 2.128-2.13 2.128s4.257-2.13 10.644-4.257c6.387-2.13 14.903-4.257 23.417-4.257 4.257 0 8.516 0 12.773 2.13 4.257 0 8.516 2.13 10.644 2.13 2.13 2.13 6.387 2.13 8.516 2.13 0.002 4.255 2.132 4.255 2.132 4.255z" />
<glyph unicode="&#xea2f;" d="M674.811 430.862c14.996 14.996 23.564 34.277 23.564 55.698v109.255c0 53.557-23.564 102.828-59.984 137.105-12.854 10.711-23.564 25.707-32.134 38.561h-188.517c-8.57-14.996-19.28-27.85-32.134-38.561-36.418-34.277-59.984-81.405-59.984-137.105v-122.109c0-17.137 10.711-29.991 23.564-40.704v0c8.57-8.57 8.57-38.561 0-47.13v0c-12.854-10.711-23.564-23.564-23.564-40.704v-349.185c0-12.854 6.427-23.564 14.996-32.134 12.854-17.137 32.134-27.85 55.698-27.85 17.137 0 34.277 6.427 44.987 17.137h23.564c12.854-10.711 27.85-17.137 44.987-17.137s34.277 6.427 44.987 17.137h23.566c12.854-10.711 27.85-17.137 44.987-17.137 23.564 0 42.844 10.711 55.698 27.85 8.57 8.57 14.996 19.28 14.996 32.134v344.903c0 10.711-6.427 23.564-12.854 32.134l-6.427 8.57c-12.854 12.854-12.854 36.418 0 49.271v0z" />
<glyph unicode="&#xea30;" d="M437.021 850.745v0l2.143-12.854c0-34.277-12.854-66.411-36.418-94.259h222.794c-21.423 25.707-36.418 57.841-36.418 94.259v12.854h2.143c4.284 0 8.57 4.284 8.57 8.57 0 4.284-4.284 8.57-8.57 8.57h-2.143v23.564h-152.102v-19.28h-2.143c-4.284 0-8.57-4.284-8.57-8.57 0.002-8.57 4.286-12.854 10.713-12.854z" />
<glyph unicode="&#xea31;" d="M574.126 960h-119.966c-10.711 0-21.423-8.57-21.423-21.423v-49.271h162.812v49.271c-0.002 12.854-10.713 21.423-21.423 21.423z" />
<glyph unicode="&#xea32;" d="M327.765 306.612h370.61v-222.794h-370.61v222.794z" />
<glyph unicode="&#xea33;" d="M569.84 167.364c0-29.991-25.707-55.698-55.698-55.698s-55.698 25.707-55.698 55.698c0 29.991 55.698 109.255 55.698 109.255s55.698-77.121 55.698-109.255z" />
<glyph unicode="&#xea34;" d="M526.995 126.662c-29.991 0-55.698 25.707-55.698 55.698 0 21.423 27.85 68.552 44.987 94.259-2.143 0-2.143 2.143-2.143 2.143s-55.698-79.264-55.698-109.255c0-29.991 25.707-55.698 55.698-55.698 19.28 0 34.277 8.57 44.987 23.564-8.57-8.57-19.28-10.711-32.134-10.711z" />
<glyph unicode="&#xea35;" d="M423.535 278.809h-44.864c-25.488 0-49.143 12.67-63.249 33.863l-15.379 23.060 27.487 18.319 15.379-23.060c7.978-11.992 21.358-19.145 35.763-19.145h44.864c2.825 0 5.649 0.281 8.408 0.842l55.568 11.1c4.609 0.942 7.978 5.038 7.978 9.746v77.439h33.037v-77.439c0-20.384-14.52-38.125-34.524-42.139l-55.568-11.1c-4.856-0.991-9.878-1.487-14.9-1.487z" />
<glyph unicode="&#xea36;" d="M431.893 130.142h-53.223c-25.488 0-49.143 12.67-63.249 33.863l-15.379 23.060 27.487 18.319 15.379-23.060c7.978-11.992 21.358-19.145 35.763-19.145h53.223c6.64 0 13.314 1.569 19.228 4.526l38.885 19.459c3.37 1.701 5.484 5.104 5.484 8.87v66.256h33.037v-66.256c0-16.353-9.102-31.088-23.737-38.422l-38.901-19.459c-10.473-5.236-22.234-8.011-33.995-8.011z" />
<glyph unicode="&#xea37;" d="M645.362 278.809h-44.864c-5.022 0-10.027 0.496-14.916 1.487l-55.535 11.1c-20.020 4.014-34.54 21.738-34.54 42.139v77.439h33.037v-77.439c0-4.708 3.37-8.804 7.995-9.746l55.535-11.1c2.775-0.562 5.6-0.842 8.424-0.842h44.864c14.404 0 27.784 7.169 35.763 19.145l15.379 23.060 27.487-18.319-15.379-23.060c-14.123-21.193-37.761-33.863-63.249-33.863z" />
<glyph unicode="&#xea38;" d="M645.362 130.142h-53.223c-11.761 0-23.522 2.775-34.012 8.011l-38.901 19.459c-14.652 7.334-23.737 22.069-23.737 38.422v66.256h33.037v-66.256c0-3.783 2.114-7.186 5.501-8.87l38.885-19.459c5.914-2.973 12.587-4.526 19.228-4.526h53.223c14.404 0 27.784 7.169 35.763 19.145l15.379 23.060 27.487-18.319-15.379-23.060c-14.123-21.193-37.761-33.863-63.249-33.863z" />
<glyph unicode="&#xea39;" d="M140.655 612.45l-8.342-50.117c-10.093-60.524-39.165-99.607-88.952-119.512l-12.752-5.104 2.676-13.479c10.126-50.646-0.314-102.266-31.005-153.441l28.329-16.998c32.459 54.082 44.98 109.105 37.315 163.765 40.685 19.624 69.328 51.604 85.533 95.428l61.845-123.707 15.792-94.767-16.238-243.747-32.36-97.096 31.319-10.456 33.054 99.111 17.477 253.824-16.849 100.994-106.842 215.302z" />
<glyph unicode="&#xea3a;" d="M125.442 926.302l-19.74 26.496c-61.185-45.657-95.741-119.726-105.702-226.436l32.905-3.072c9.019 96.881 39.298 163.286 92.537 203.013z" />
<glyph unicode="&#xea3b;" d="M990.715 424.238l2.693 13.479-12.752 5.104c-49.77 19.905-78.859 58.988-88.952 119.512l-8.358 50.101-105.306-210.611-18.352-105.669 16.651-249.694 33.863-103.241 31.303 10.456-32.36 97.096-16.238 243.747 15.792 94.767 61.845 123.707c16.238-43.824 44.848-75.804 85.533-95.428-7.665-54.676 4.856-109.7 37.315-163.765l28.329 16.998c-30.691 51.158-41.115 102.778-31.005 153.441z" />
<glyph unicode="&#xea3c;" d="M991.112 723.29l32.888 3.072c-9.928 106.726-44.501 180.795-105.686 226.452l-19.74-26.496c53.256-39.727 83.534-106.148 92.537-203.029z" />
<glyph unicode="&#xea3d;" d="M841.834 637.988l-31.947 8.474c-13.033-49.159-40.272-124.996-59.962-139.631-29.519-21.97-81.156-34.755-120.238-29.915-20.301 2.544-54.379 16.502-93.495 38.273-4.724 2.626-7.665 7.681-7.665 13.165v64.323l-33.037-0.017v-64.323c0-5.501-2.94-10.539-7.665-13.165-39.099-21.771-73.194-35.73-93.511-38.273-38.984-4.906-90.687 7.962-120.222 29.915-19.69 14.635-46.929 90.455-59.962 139.631l-31.947-8.441c5.748-21.656 36.159-130.926 72.186-157.702 31.319-23.275 78.892-37.514 121.973-37.514 7.532 0 14.949 0.429 22.085 1.321 31.683 3.981 74.845 25.141 105.454 42.188 3.023 1.668 5.616 3.849 8.144 6.079 2.527-2.213 5.104-4.394 8.111-6.062 30.625-17.064 73.772-38.224 105.438-42.188 7.169-0.909 14.569-1.338 22.102-1.338 43.097 0 90.67 14.239 121.973 37.497 36.043 26.76 66.454 136.047 72.186 157.702z" />
<glyph unicode="&#xea3e;" d="M144.521 680.903c20.351 23.291 30.691 52.265 34.705 65.777 71.129 40.206 99.392 117.893 100.581 121.263l-31.137 11.067c-0.264-0.743-26.677-73.392-91.1-106.462l-6.872-3.535-1.701-7.532c-0.083-0.347-7.896-34.276-29.353-58.839l24.877-21.738z" />
<glyph unicode="&#xea3f;" d="M463.213 856.941c-58.063 2.643-107.701 30.576-108.196 30.873l-16.419-28.66c2.296-1.321 56.824-32.195 123.096-35.217l1.52 33.004z" />
<glyph unicode="&#xea40;" d="M844.807 746.68c4.014-13.496 14.371-42.486 34.672-65.76l24.893 21.722c-21.276 24.365-29.304 58.525-29.386 58.872l-1.718 7.516-6.822 3.518c-64.059 32.872-90.835 105.752-91.116 106.495l-31.121-11.1c1.206-3.386 29.469-81.056 100.598-121.263z" />
<glyph unicode="&#xea41;" d="M685.42 859.154l-16.452 28.643c-0.479-0.264-49.77-28.197-108.163-30.857l1.52-33.004c66.289 3.023 120.817 33.896 123.096 35.217z" />
<glyph unicode="&#xea42;" d="M495.44 658.735h33.037v-33.037h-33.037v33.037z" />
<glyph unicode="&#xea43;" d="M727.608 13.307l-10.341 14.751c-1.652-1.156-40.437-28.742-55.734-74.35l31.319-10.522c11.728 34.953 42.882 57.435 43.378 57.798v0 0l0.033 0.033-8.656 12.29z" />
<glyph unicode="&#xea44;" d="M306.749 28.058l-18.996-27.041c0.33-0.231 31.666-22.763 43.411-57.815l31.319 10.489c-15.28 45.624-54.082 73.21-55.734 74.366z" />
<glyph unicode="&#xea45;" d="M861.15 266.637l-1.606 2.434 2.466-1.804 0.472 38.414c1.658 135.792-37.768 267.883-71.132 354.779-39.296 102.36-81.396 173.092-85.536 179.952-0.878 4.876-7.97 37.452-42.23 51.578-38.258 25.338-119.578 68.010-183.038 68.010-27.050 0-48.792-7.63-64.63-22.672-53.562-50.844-62.37-85.21-60.326-105.084 1.832-17.892 12.21-27.932 17.422-31.91l-0.844-3.396c-2.452-10.024 0.062-30.658 44.368-56.25 19.936-11.52 39.272-17.12 59.124-17.12 26.938 0 49.458 10.758 67.738 19.488 2.94 1.406 5.8 2.768 8.578 4.040 6.696 3.072 13.028 3.348 18.646 0.726 11.104-5.178 18.128-20.628 20.508-28.708-2.562-14.376-38.75-222.634-9.84-335.913l0.086-0.348c-29.002 13.198-59.54 19.888-90.86 19.888-19.754 0-40.124-2.678-60.536-7.958-47.936-12.402-81.788-35.702-89.498-41.332-18.108 8.664-39.1 13.058-62.43 13.058-13.22 0-27.222-1.418-41.616-4.214l-18.718-3.632 2.93-18.85c11.582-74.322 49.928-259.491 155.59-373.487l8.836-9.528 12.25 4.308c27.482 9.668 52.334 22.48 73.856 38.086l32.574 23.612c3.752-0.176 9.174-0.352 15.908-0.352 52.164 0 178.308 10.494 229.34 107.214 5.438-1.126 17.962-3.312 33.218-3.312 45.038 0 76.552 19.072 88.738 53.702 13.416 38.128 2.072 68.128-9.808 86.582z" />
<glyph unicode="&#xea46;" d="M355.591 832.244c1.832-17.892 12.21-27.932 17.422-31.91l-0.844-3.396c-2.452-10.024 0.062-30.658 44.368-56.25 19.936-11.52 39.272-17.12 59.124-17.12 26.938 0 49.458 10.758 67.738 19.488 2.94 1.406 5.8 2.768 8.578 4.040 0.162 0.076 0.32 0.13 0.482 0.196-8.778-2.002-17.152-2.982-25.384-2.982-20.94 0-41.884 6.22-64.046 19.030-29.48 17.030-39.302 29.302-42.32 34.22 3.316 7.644 4.178 15.918 2.396 23.934-2.542 11.372-9.332 20.606-19.182 26.124-1.594 1.226-6.89 5.946-7.86 15.382-0.878 8.576 0.856 38.26 50.314 92.070-11.776-3.774-21.972-9.682-30.456-17.738-53.564-50.848-62.372-85.214-60.33-105.088z" />
<glyph unicode="&#xea47;" d="M447.723 145.542c-43.832 0-75.942 7.032-78.958 7.716-8.886 2.020-14.456 10.86-12.436 19.742 2.018 8.882 10.85 14.436 19.728 12.438v0c1.56-0.352 157.060-34.080 246.976 54.648 6.486 6.396 16.93 6.326 23.332-0.16 6.396-6.482 6.326-16.93-0.16-23.326-59.066-58.284-139.412-71.058-198.482-71.058z" />
<glyph unicode="&#xea48;" d="M732.295 347.527c-0.978 0-1.972 0.084-2.968 0.27-8.968 1.628-14.914 10.216-13.28 19.182 26.374 145.062-22.19 268.917-22.684 270.149-3.386 8.458 0.73 18.062 9.19 21.446 8.462 3.384 18.062-0.736 21.446-9.196 2.158-5.396 52.57-133.996 24.512-288.305-1.45-7.962-8.396-13.546-16.216-13.546z" />
<glyph unicode="&#xea49;" d="M594.945 346.819l0.014-0.004c4.278-1.108 8.13-2.218 11.534-3.272 6.578-1.038 13.92-0.506 16.058 6.194 4.126 12.924-41.172 33.112-41.172 33.112-29.002 13.198-59.54 19.888-90.86 19.888-19.754 0-40.124-2.678-60.536-7.958-47.936-12.402-81.788-35.702-89.498-41.332-18.108 8.664-39.1 13.058-62.43 13.058-13.22 0-27.224-1.418-41.616-4.214l-16.602-3.226 0.814-5.224c2.476-15.866 6.172-36.806 11.48-61.008 2.848-0.582 5.834-0.358 8.61 0.708 13.68 5.26 28.15 7.926 43 7.926 31.76 0 55.14-12.244 55.662-12.518 2.306-1.25 4.83-1.862 7.34-1.862 3.69 0 7.348 1.324 10.234 3.892 48.396 43.028 104.974 64.84 168.166 64.84 28.042-0.004 52.356-4.472 69.802-9v0z" />
<glyph unicode="&#xea4a;" d="M564.253 749.522v0c2.206-0.196 4.334-0.756 6.37-1.702 11.104-5.178 18.128-20.628 20.508-28.708-2.554-14.308-37.962-222.652-9.754-336.263 0 0 0.478-0.214 1.306-0.598 0.020-0.006 0.042-0.018 0.058-0.026 0.222-0.102 0.46-0.22 0.738-0.342 0.058-0.030 0.106-0.052 0.17-0.082 0.072-0.034 0.144-0.074 0.22-0.108 1.274-0.6 2.968-1.414 4.952-2.418 0.022-0.010 0.046-0.022 0.068-0.032 0.736-0.372 1.51-0.768 2.318-1.188 0.034-0.018 0.064-0.030 0.094-0.046 1.664-0.862 3.452-1.814 5.3-2.84 0.040-0.026 0.074-0.044 0.11-0.062 10.38-5.764 22.668-13.802 25.482-20.822 0.004 0 0.006-0.004 0.010-0.008-0.004 0-0.004 0-0.006 0 0.046-0.116 0.094-0.232 0.138-0.348 0.284 0.048 0.478 0.080 0.478 0.080-40.132 100.296-4.662 288.851 3.036 344.945 7.7 56.092-61.596 50.568-61.596 50.568z" />
<glyph unicode="&#xea4b;" d="M388.853-34.446l-6.84 7.388c-52.126 56.302-93.76 136.454-123.738 238.22-19.436 65.976-28.264 122.034-31.796 149.568l-0.496 3.84c-1.126 8.784-8.6 15.366-17.452 15.366h-43.958c-9.72 0-17.6-7.88-17.6-17.6v-408.735c0-9.716 7.88-17.6 17.6-17.6h211.366c6.992 0 13.324 4.142 16.122 10.552 2.804 6.414 1.546 13.872-3.208 19.002z" />
<glyph unicode="&#xea4c;" d="M179.646 191.688c-17.71 60.106-27.524 112.828-32.672 146.866v-384.955c0-9.716 7.88-17.6 17.6-17.6h144.132c-53.966 62.156-97.358 148.080-129.060 255.69z" />
<glyph unicode="&#xea4d;" d="M405.315 522.682c-8.218 0-15.376-7-18.907-17.251-5.874 10.25-17.657 17.251-31.219 17.251-19.437 0-35.187-14.344-35.187-32.001v-98.877c0-17.657 15.75-31.969 35.187-31.969 15.5 0 28.657 9.124 33.343 21.813 3.906-7.468 9.968-12.282 16.783-12.282 11.782 0 21.345 14.312 21.345 32.001v89.313c0 17.659-9.562 32.003-21.345 32.003z" />
<glyph unicode="&#xea4e;" d="M490.659 437.338c-179.846 22.563-411.753-79.156-352.503-325.034l117.846-57.094 520.724 186.312 7.562 67.814c0 0.002-71.752 100.159-293.629 128.002z" />
<glyph unicode="&#xea4f;" d="M924.725 781.872c-8 3.876-17.595 2.376-24.033-3.78-24.689-23.563-52.876-44.687-83.845-62.782-5.81-3.406-9.686-9.344-10.436-16.033l-55.252-494.253c-0.594-5.438 0.906-10.906 4.218-15.248l80.969-106.691c4.094-5.376 10.438-8.438 16.969-8.438 1.968 0 3.938 0.282 5.874 0.844 8.468 2.406 14.562 9.782 15.376 18.533l62.096 666.663c0.846 8.842-3.936 17.313-11.936 21.187z" />
<glyph unicode="&#xea50;" d="M873.443 103.115c-0.688 1.906-17.187 47.689-62.248 93.219-41.345 41.811-115.754 91.657-235.191 91.657-82.595 0-160.595-11.562-231.845-34.345-57.25-18.313-110.281-43.875-157.627-75.998-81.251-55.126-117.594-110.379-119.094-112.722-6.25-9.592-3.782-22.405 5.562-29.031l60.344-42.655c3.624-2.532 7.906-3.906 12.312-3.906h647.318c4.438 0 8.718 1.376 12.344 3.906l60.342 42.655c5.656 4 9 10.5 9 17.439v42.655c0 2.44-0.406 4.846-1.218 7.126z" />
<glyph unicode="&#xea51;" d="M576.004 373.338c-58.814 0-106.687-47.843-106.687-106.657 0-58.844 47.873-106.687 106.687-106.687s106.657 47.843 106.657 106.687c0 58.814-47.843 106.657-106.657 106.657z" />
<glyph unicode="&#xea52;" d="M576.004 117.336c-11.782 0-21.345 9.532-21.345 21.345v128c0 11.782 9.562 21.313 21.345 21.313s21.313-9.532 21.313-21.313v-128c0-11.814-9.53-21.345-21.313-21.345z" />
<glyph unicode="&#xea53;" d="M618.661 117.336h-85.347c-11.782 0-21.311 9.532-21.311 21.345 0 11.782 9.53 21.313 21.311 21.313h85.347c11.782 0 21.345-9.532 21.345-21.313 0-11.814-9.562-21.345-21.345-21.345z" />
<glyph unicode="&#xea54;" d="M573.754 596.215c-3.624 7.218-11 11.782-19.095 11.782h-298.657c-11.782 0-21.345-9.532-21.345-21.313v-85.345c0-11.782 9.562-21.345 21.345-21.345h234.657c6.718 0 13.032 3.156 17.063 8.532l64 85.345c4.844 6.468 5.626 15.124 2.032 22.343z" />
<glyph unicode="&#xea55;" d="M853.319 74.678c-47.031 0-85.313-38.281-85.313-85.343 0-9.718 1.656-19.313 4.906-28.469 3-8.5 11.062-14.188 20.095-14.188h120.656c9.032 0 17.095 5.688 20.095 14.188 3.25 9.156 4.906 18.751 4.906 28.469 0 47.061-38.281 85.343-85.345 85.343z" />
<glyph unicode="&#xea56;" d="M85.313 74.678c-47.031 0-85.313-38.281-85.313-85.343 0-9.718 1.656-19.313 4.906-28.469 3-8.5 11.062-14.188 20.095-14.188h120.658c9.032 0 17.095 5.688 20.095 14.188 3.25 9.156 4.906 18.751 4.906 28.469-0.002 47.061-38.285 85.343-85.347 85.343z" />
<glyph unicode="&#xea57;" d="M1017.758 900.436l-42.687 42.657c-4.812 4.812-11.624 7.032-18.345 5.968-6.75-1.032-12.562-5.25-15.688-11.282-0.376-0.718-37.345-71.656-95.813-120.782-70.282-59.062-163.345-88.689-164.251-88.969-6.406-2-11.5-6.906-13.75-13.25s-1.376-13.344 2.376-18.939l37.967-57c4.062-6.062 10.782-9.5 17.783-9.5 2.25 0 4.562 0.344 6.812 1.124 118.784 40.125 191.19 104.689 231.003 151.751 43.717 51.752 59 94.251 59.626 96.033 2.718 7.75 0.78 16.377-5.032 22.189z" />
<glyph unicode="&#xea58;" d="M432.762 536.87v-600.87h95.98v1024h-95.98v-92.448z" />
<glyph unicode="&#xea59;" d="M432.762 593.344v-115.736h95.98v197.236h-95.98v-17.808z" />
<glyph unicode="&#xea5a;" d="M796.444 536.878h-696.886v330.666h696.886l127.998-165.332z" />
<glyph unicode="&#xea5b;" d="M685.846 746.654c9.82 0 17.778 7.96 17.778 17.778s-7.958 17.778-17.778 17.778h-67.168c-9.82 0-17.778-7.96-17.778-17.778v-124.444c0-9.818 7.958-17.778 17.778-17.778h67.168c9.82 0 17.778 7.96 17.778 17.778s-7.958 17.778-17.778 17.778h-49.388v26.664h21.734c9.82 0 17.778 7.96 17.778 17.778s-7.958 17.778-17.778 17.778h-21.734v26.666h49.388z" />
<glyph unicode="&#xea5c;" d="M801.076 657.77h-44.904v106.664c0 9.818-7.958 17.778-17.778 17.778s-17.778-7.96-17.778-17.778v-124.444c0-9.818 7.958-17.778 17.778-17.778h62.682c9.82 0 17.778 7.96 17.778 17.778s-7.958 17.78-17.778 17.78z" />
</font>
</defs>
</svg>
