<?xml version="1.0" encoding="iso-8859-1"?>
<!-- Generator: Adobe Illustrator 19.0.0, SVG Export Plug-In . SVG Version: 6.00 Build 0)  -->
<svg version="1.1" id="Capa_1" xmlns="http://www.w3.org/2000/svg" xmlns:xlink="http://www.w3.org/1999/xlink" x="0px" y="0px"
	 viewBox="0 0 512.002 512.002" style="enable-background:new 0 0 512.002 512.002;" xml:space="preserve">
<g>
	<path style="fill:#50AD62;" d="M101.22,308.472H82.529c-3.574,0-6.482,2.908-6.482,6.482v5.416c0,3.574,2.908,6.482,6.482,6.482
		h18.692c1.787,0,3.407-0.727,4.581-1.901s1.901-2.794,1.901-4.581v-5.416C107.702,311.38,104.794,308.472,101.22,308.472z"/>
	<path style="fill:#50AD62;" d="M408.811,308.472h18.691c3.574,0,6.482,2.908,6.482,6.482v5.416c0,3.574-2.908,6.482-6.482,6.482
		h-18.691c-1.787,0-3.407-0.727-4.581-1.901s-1.901-2.794-1.901-4.581v-5.416C402.329,311.38,405.237,308.472,408.811,308.472z"/>
</g>
<path style="fill:#0072A2;" d="M117.214,448.132c-0.334,0-0.666-0.009-0.995-0.026v29.846c0,8.184,6.635,14.819,14.819,14.819
	h21.966c8.184,0,14.819-6.635,14.819-14.819v-29.82H117.214z"/>
<path style="fill:#006289;" d="M133.917,448.132v29.82c0,6.059-3.64,11.26-8.849,13.557c1.827,0.806,3.844,1.262,5.969,1.262h21.966
	c8.184,0,14.819-6.635,14.819-14.819v-29.82H133.917z"/>
<path style="fill:#0072A2;" d="M394.854,448.132h-50.608v29.82c0,8.184,6.635,14.819,14.819,14.819h21.966
	c8.184,0,14.819-6.635,14.819-14.819v-29.846C395.52,448.123,395.188,448.132,394.854,448.132z"/>
<path style="fill:#006289;" d="M394.854,448.132h-32.909v29.82c0,6.059-3.64,11.26-8.849,13.557
	c1.827,0.806,3.844,1.262,5.969,1.262h21.966c8.184,0,14.819-6.635,14.819-14.819v-29.846
	C395.52,448.122,395.188,448.132,394.854,448.132z"/>
<path style="fill:#FFFCFD;" d="M139.603,333.297h232.862c7.966,0,15.401,2.26,21.71,6.166l-26.574-83.734
	c-3.204-10.096-12.577-16.955-23.169-16.955H167.635c-10.592,0-19.965,6.859-23.169,16.955l-26.574,83.734
	C124.202,335.557,131.637,333.297,139.603,333.297z"/>
<path style="fill:#E4E4E4;" d="M367.601,255.728c-3.204-10.096-12.577-16.955-23.169-16.955h-35.466
	c10.592,0,19.965,6.859,23.169,16.955l24.617,77.569h15.713c7.966,0,15.401,2.26,21.71,6.166L367.601,255.728z"/>
<path style="fill:#A0D860;" d="M394.854,452.993h-277.64c-10.452,0-18.925-8.473-18.925-18.925v-59.457
	c0-22.817,18.497-41.314,41.314-41.314h232.862c22.817,0,41.314,18.497,41.314,41.314v59.458
	C413.779,444.52,405.306,452.993,394.854,452.993z"/>
<g>
	<path style="fill:#61C979;" d="M372.465,333.297h-33.708c22.817,0,41.314,18.497,41.314,41.314v59.457
		c0,10.452-8.473,18.925-18.925,18.925h33.708c10.452,0,18.925-8.473,18.925-18.925v-59.457
		C413.779,351.794,395.282,333.297,372.465,333.297z"/>
	<path style="fill:#61C979;" d="M312.974,422.541h-113.88c-8.956,0-16.217,7.261-16.217,16.217v14.209h146.314v-14.209
		C329.191,429.801,321.93,422.541,312.974,422.541z"/>
</g>
<g>
	<path style="fill:#FFFCFD;" d="M126.954,397.813l31.647,8.275c1.572,0.411,2.811,1.618,3.264,3.178l5.171,17.814
		c0.991,3.413-2.086,6.617-5.536,5.766l-34.42-8.49c-1.837-0.453-3.211-1.982-3.467-3.857l-2.399-17.598
		C120.772,399.645,123.776,396.982,126.954,397.813z"/>
	<path style="fill:#FFFCFD;" d="M385.113,397.813l-31.647,8.275c-1.572,0.411-2.811,1.618-3.264,3.178l-5.171,17.814
		c-0.991,3.413,2.086,6.617,5.536,5.766l34.42-8.49c1.837-0.453,3.211-1.982,3.467-3.857l2.399-17.598
		C391.296,399.645,388.292,396.982,385.113,397.813z"/>
</g>
<path style="fill:#E4E4E4;" d="M385.113,397.813l-5.042,1.319v26.436l4.916-1.212c1.837-0.453,3.211-1.982,3.467-3.857l2.399-17.598
	C391.296,399.645,388.292,396.982,385.113,397.813z"/>
<path style="fill:#B4E870;" d="M372.465,333.297H139.603c-7.937,0-15.348,2.243-21.643,6.122
	c7.088,28.443,32.636,48.458,62.006,48.458h152.137c29.37,0,54.918-20.014,62.006-48.458
	C387.813,335.54,380.402,333.297,372.465,333.297z"/>
<g>
	<path style="fill:#A0D860;" d="M389.409,336.934c-0.124-0.056-0.247-0.113-0.371-0.168c-1.58-0.693-3.213-1.288-4.889-1.782
		c-0.184-0.054-0.37-0.106-0.555-0.158c-0.71-0.198-1.427-0.378-2.151-0.539c-0.139-0.031-0.275-0.066-0.415-0.096
		c-0.842-0.178-1.694-0.329-2.554-0.454c-0.185-0.027-0.373-0.047-0.56-0.071c-0.688-0.091-1.382-0.164-2.081-0.221
		c-0.241-0.019-0.483-0.04-0.725-0.055c-0.873-0.055-1.75-0.093-2.637-0.093c-0.002,0-0.004,0-0.006,0h-33.708
		c20.209,0,37.018,14.514,40.599,33.685c6.955-7.637,12.124-17.019,14.752-27.563c-0.761-0.469-1.54-0.912-2.332-1.332
		c-0.082-0.044-0.166-0.084-0.249-0.128C390.832,337.598,390.125,337.257,389.409,336.934z"/>
	<path style="fill:#A0D860;" d="M141.35,333.297l22.484-71.422c0.528-1.664,2.056-2.782,3.802-2.782h176.796
		c1.746,0,3.274,1.118,3.801,2.782l22.427,71.422h1.805c7.966,0,15.401,2.26,21.71,6.166l-26.574-83.735
		c-3.204-10.096-12.577-16.955-23.169-16.955H167.635c-10.592,0-19.965,6.859-23.169,16.955l-26.574,83.735
		c6.309-3.906,13.745-6.166,21.71-6.166H141.35z"/>
</g>
<path style="fill:#61C979;" d="M367.601,255.728c-3.204-10.096-12.577-16.955-23.169-16.955h-35.304
	c10.592,0,19.965,6.859,23.169,16.955l1.068,3.365h11.067c1.746,0,3.274,1.118,3.801,2.782l22.427,71.422h1.805
	c7.966,0,15.401,2.26,21.71,6.166L367.601,255.728z"/>
<rect x="53.95" y="158.211" style="fill:#0072A2;" width="404.1" height="33.822"/>
<rect x="53.95" y="158.211" style="fill:#006289;" width="404.1" height="15.04"/>
<path style="fill:#0072A2;" d="M453.189,158.215v331.122c0,1.896,1.537,3.434,3.434,3.434h38.542c1.896,0,3.434-1.537,3.434-3.434
	V158.215H453.189z"/>
<path style="fill:#006289;" d="M464.693,158.215v334.556h30.471c1.896,0,3.434-1.537,3.434-3.434V158.215H464.693z"/>
<path style="fill:#0072A2;" d="M13.402,158.215v331.122c0,1.896,1.537,3.434,3.434,3.434h38.542c1.896,0,3.434-1.537,3.434-3.434
	V158.215H13.402z"/>
<path style="fill:#006289;" d="M24.906,158.215v334.556h30.471c1.896,0,3.434-1.537,3.434-3.434V158.215H24.906z"/>
<path style="fill:#D96B37;" d="M503.397,134.72L254.269,19.833c-1.768-0.815-3.808-0.801-5.564,0.039L8.575,134.712
	c-0.786,0.376-1.287,1.17-1.287,2.042v24.06c0,1.25,1.013,2.263,2.263,2.263h492.898c1.25,0,2.263-1.013,2.263-2.263v-24.038
	C504.712,135.892,504.199,135.09,503.397,134.72z"/>
<path style="fill:#B14418;" d="M503.397,134.72L254.269,19.833c-1.768-0.815-3.808-0.801-5.564,0.039l-39.646,18.96l237.578,110.449
	H7.288v11.532c0,1.25,1.013,2.263,2.263,2.263h492.898c1.25,0,2.263-1.013,2.263-2.263v-24.038
	C504.712,135.893,504.199,135.09,503.397,134.72z"/>
<g>
	<path style="fill:#1A1A1A;" d="M168.865,407.235c-1.161-4.003-4.387-7.143-8.419-8.198l-31.648-8.274
		c-0.992-0.259-2.009-0.391-3.025-0.391c-3.427,0-6.693,1.489-8.959,4.085c-2.257,2.586-3.284,6.023-2.82,9.427l2.399,17.598
		c0.663,4.869,4.173,8.774,8.943,9.948l34.42,8.491c0.943,0.233,1.91,0.351,2.872,0.351c3.708,0,7.26-1.782,9.502-4.768
		c2.265-3.016,2.96-6.827,1.905-10.456L168.865,407.235z M130.59,417.715l-1.614-11.84l26.314,6.88l3.457,11.907L130.59,417.715z"/>
	<path style="fill:#1A1A1A;" d="M386.294,390.372c-1.016,0-2.034,0.132-3.025,0.391l-31.648,8.274
		c-4.031,1.054-7.257,4.195-8.418,8.197l-5.172,17.814c-1.054,3.629-0.36,7.439,1.905,10.456c2.241,2.985,5.794,4.768,9.501,4.768
		c0.001,0,0.001,0,0.001,0c0.962,0,1.929-0.118,2.872-0.351l34.418-8.49c4.771-1.176,8.281-5.08,8.944-9.948l2.398-17.598
		c0.465-3.406-0.563-6.843-2.819-9.428C392.987,391.861,389.722,390.372,386.294,390.372z M381.478,417.715l-28.157,6.946
		l3.457-11.907l26.314-6.88L381.478,417.715z"/>
	<path style="fill:#1A1A1A;" d="M427.503,301.184h-18.692c-7.592,0-13.77,6.177-13.77,13.77v3.147l-20.494-64.578
		c-4.183-13.181-16.284-22.037-30.115-22.037H167.635c-13.828,0-25.931,8.856-30.115,22.037l-23.023,72.546l-0.483-0.616
		c0.635-1.597,0.975-3.313,0.975-5.083v-5.416c0-7.592-6.177-13.77-13.77-13.77H82.528c-7.592,0-13.77,6.177-13.77,13.77v5.416
		c0,7.592,6.177,13.77,13.77,13.77h18.692c0.351,0,0.698-0.025,1.045-0.051l4.046,5.162c-9.415,8.869-15.31,21.435-15.31,35.36
		v59.458c0,11.559,7.524,21.388,17.93,24.864v19.019c0,12.19,9.917,22.107,22.106,22.107h21.966c12.19,0,22.107-9.917,22.107-22.107
		v-17.671h161.849v17.671c0,12.19,9.917,22.107,22.106,22.107h21.965c12.19,0,22.107-9.917,22.107-22.107v-19.019
		c10.405-3.476,17.93-13.304,17.93-24.864v-59.458c0-14.501-6.392-27.531-16.497-36.443l3.197-4.079
		c0.346,0.026,0.693,0.051,1.044,0.051h18.692c7.592,0,13.77-6.177,13.77-13.77v-5.416
		C441.272,307.362,435.095,301.184,427.503,301.184z M100.414,319.565h-17.08v-3.805h17.08V319.565z M151.412,257.933
		c2.254-7.101,8.774-11.872,16.223-11.872h176.798c7.45,0,13.969,4.77,16.223,11.871l21.943,69.142
		c-0.023-0.005-0.046-0.009-0.069-0.013c-0.044-0.009-0.088-0.018-0.132-0.028c-0.201-0.042-0.404-0.077-0.605-0.116
		c-0.003-0.001-0.006-0.001-0.009-0.002c-0.293-0.057-0.586-0.117-0.881-0.169c-0.209-0.037-0.42-0.067-0.63-0.101
		c-0.224-0.036-0.447-0.074-0.673-0.107c-0.114-0.017-0.227-0.035-0.342-0.051c-0.255-0.036-0.511-0.064-0.766-0.096
		c-0.296-0.037-0.592-0.077-0.89-0.108c-0.036-0.004-0.071-0.009-0.106-0.013c-0.113-0.012-0.227-0.019-0.34-0.029
		c-0.108-0.01-0.217-0.018-0.325-0.028c-0.26-0.023-0.518-0.052-0.778-0.071l-20.871-66.465c-1.49-4.708-5.809-7.871-10.749-7.871
		H167.636c-4.935,0-9.255,3.161-10.754,7.882l-20.921,66.459c-0.063,0.005-0.125,0.015-0.188,0.02
		c-0.29,0.023-0.579,0.047-0.868,0.075c-0.11,0.011-0.221,0.017-0.331,0.029c-0.608,0.063-1.214,0.139-1.819,0.225
		c-0.067,0.009-0.132,0.021-0.199,0.031c-0.01,0.001-0.019,0.003-0.029,0.005c-0.243,0.036-0.484,0.074-0.726,0.113
		c-0.515,0.084-1.029,0.176-1.54,0.276c-0.196,0.038-0.393,0.072-0.588,0.113c-0.054,0.011-0.107,0.023-0.161,0.034
		c-0.015,0.003-0.03,0.005-0.045,0.008L151.412,257.933z M360.734,326.009H151.285l18.771-59.629h171.953L360.734,326.009z
		 M127.891,342.667c0.041-0.015,0.082-0.032,0.123-0.047c0.125-0.046,0.253-0.085,0.379-0.129c0.535-0.187,1.075-0.361,1.619-0.521
		c0.164-0.048,0.33-0.095,0.495-0.141c0.036-0.01,0.072-0.02,0.108-0.03c0.544-0.149,1.093-0.284,1.645-0.406
		c0.16-0.035,0.319-0.074,0.479-0.107c0.659-0.136,1.323-0.252,1.991-0.348c0.163-0.023,0.327-0.041,0.49-0.063
		c0.554-0.072,1.11-0.129,1.669-0.174c0.094-0.007,0.187-0.015,0.281-0.021c0.107-0.008,0.214-0.017,0.321-0.023
		c0.701-0.043,1.403-0.073,2.108-0.073c0.001,0,0.002,0,0.004,0h1.747h229.31h1.805c0.706,0,1.409,0.03,2.111,0.073
		c0.114,0.007,0.227,0.017,0.34,0.025c0.087,0.006,0.173,0.013,0.26,0.02c0.561,0.045,1.119,0.102,1.675,0.174
		c0.161,0.021,0.324,0.039,0.484,0.062c0.668,0.096,1.333,0.213,1.993,0.348c0.16,0.033,0.319,0.071,0.479,0.107
		c0.552,0.122,1.1,0.257,1.645,0.406c0.041,0.011,0.082,0.022,0.123,0.034c0.159,0.044,0.318,0.089,0.476,0.135
		c0.549,0.161,1.093,0.337,1.633,0.525c0.121,0.043,0.245,0.08,0.366,0.124c0.043,0.016,0.085,0.033,0.127,0.049
		c0.403,0.148,0.799,0.316,1.197,0.479c-8.001,22.31-29.154,37.444-53.271,37.444H179.965c-24.117,0-45.27-15.134-53.271-37.444
		C127.091,342.982,127.487,342.815,127.891,342.667z M160.534,477.951c0,4.152-3.379,7.531-7.531,7.531h-21.966
		c-4.152,0-7.531-3.379-7.531-7.531v-17.67h37.028V477.951z M321.904,445.679h-131.74v-6.921c0-4.924,4.006-8.929,8.93-8.929
		h113.879c4.924,0,8.93,4.005,8.93,8.929v6.921H321.904z M388.561,477.951c0,4.152-3.379,7.531-7.531,7.531h-21.965
		c-4.152,0-7.531-3.379-7.531-7.531v-17.67h37.027V477.951z M406.491,374.611v59.458c0,6.145-4.792,11.181-10.834,11.597
		c-0.061,0.002-0.122-0.003-0.184,0l-0.439,0.028l-50.787,0.013h-7.768v-6.948c0-12.96-10.544-23.504-23.505-23.504h-113.88
		c-12.961,0-23.505,10.544-23.505,23.504v6.948h-58.344l-0.652-0.041c-0.062-0.003-0.123,0.002-0.184,0
		c-6.041-0.416-10.833-5.452-10.833-11.597v-59.458c0-8.793,3.353-16.818,8.847-22.863c10.991,26.027,36.559,43.417,65.542,43.417
		h152.137c28.983,0,54.55-17.391,65.542-43.417C403.138,357.793,406.491,365.818,406.491,374.611z M426.697,319.565h-17.08v-3.805
		h17.08V319.565z"/>
	<path style="fill:#1A1A1A;" d="M506.449,128.103L257.32,13.215c-1.829-0.844-3.778-1.272-5.792-1.272
		c-2.052,0-4.115,0.468-5.967,1.354L5.43,128.138C2.131,129.715,0,133.097,0,136.753v24.061c0,4.054,2.543,7.517,6.115,8.901
		v319.622c0,5.912,4.809,10.722,10.721,10.722h38.542c5.912,0,10.722-4.81,10.722-10.722V199.324h379.802v290.013
		c0,5.912,4.81,10.722,10.722,10.722h38.542c5.912,0,10.721-4.81,10.721-10.722V169.714c3.571-1.384,6.115-4.847,6.115-8.901
		v-24.038C512,133.063,509.822,129.66,506.449,128.103z M51.524,192.036v293.447H20.69V170.364h30.834
		C51.524,170.364,51.524,192.036,51.524,192.036z M445.901,184.748H66.099v-14.384h379.802V184.748z M491.31,485.483h-30.834
		V192.036v-21.672h30.834V485.483z M497.425,155.789h-44.236H58.811H14.575V139.92L251.533,26.597l245.892,113.394V155.789z"/>
</g>
<g>
</g>
<g>
</g>
<g>
</g>
<g>
</g>
<g>
</g>
<g>
</g>
<g>
</g>
<g>
</g>
<g>
</g>
<g>
</g>
<g>
</g>
<g>
</g>
<g>
</g>
<g>
</g>
<g>
</g>
</svg>
