<?xml version="1.0" encoding="iso-8859-1"?>
<!-- Generator: Adobe Illustrator 19.0.0, SVG Export Plug-In . SVG Version: 6.00 Build 0)  -->
<svg version="1.1" id="Layer_1" xmlns="http://www.w3.org/2000/svg" xmlns:xlink="http://www.w3.org/1999/xlink" x="0px" y="0px"
	 viewBox="0 0 496 496" style="enable-background:new 0 0 496 496;" xml:space="preserve">
<path style="fill:#F9BA48;" d="M432,256.376c-3.008,0-6.032-0.568-8.912-1.72L408,248.616l-15.08,6.04
	c-7.432,2.952-15.792,2.056-22.376-2.416C363.936,247.776,360,240.344,360,232.368v-4.848c0-7.216,3.2-13.984,8.792-18.56
	c5.584-4.568,12.856-6.392,19.92-4.968L408,207.84l19.288-3.856c7.096-1.448,14.344,0.4,19.92,4.968
	c5.592,4.576,8.792,11.344,8.792,18.56v4.848c0,7.976-3.936,15.408-10.544,19.872C441.424,254.976,436.736,256.376,432,256.376z
	 M408,231.384l21.032,8.416c2.496,1,5.216,0.72,7.456-0.808c2.232-1.504,3.512-3.928,3.512-6.624v-4.848
	c0-2.408-1.072-4.664-2.928-6.184c-1.856-1.528-4.264-2.096-6.64-1.656L408,224.16l-22.432-4.488
	c-2.328-0.456-4.776,0.12-6.64,1.656c-1.856,1.52-2.928,3.784-2.928,6.184v4.848c0,2.696,1.28,5.12,3.512,6.624
	c2.24,1.52,4.952,1.808,7.464,0.808L408,231.384z"/>
<g>
	<path style="fill:#333333;" d="M275.312,384c-6.048-6.048-16.576-6.048-22.624,0l-8.408,8.408
		c-15.592,15.592-40.968,15.592-56.56,0l-84.128-84.128c-15.592-15.592-15.592-40.968,0-56.56l8.408-8.408
		c3.024-3.024,4.688-7.04,4.688-11.312s-1.664-8.288-4.688-11.312L67.312,176c-6.232-6.232-16.392-6.232-22.624,0L11.24,209.448
		C4.096,216.584,0,226.488,0,236.584c0,66.24,25.8,128.52,72.64,175.368l11.408,11.408C130.888,470.2,193.168,496,259.416,496
		c10.104,0,20-4.096,27.144-11.24L320,451.312c6.24-6.232,6.24-16.392,0-22.624L275.312,384z M100.688,232l-8.408,8.408
		c-0.096,0.096-0.176,0.2-0.264,0.296L47.312,196L56,187.312L100.688,232z M275.24,473.448c-4.16,4.16-9.936,6.552-15.824,6.552
		c-61.968,0-120.232-24.136-164.056-67.952L83.952,400.64C40.136,356.824,16,298.552,16,236.584c0-5.888,2.392-11.664,6.552-15.832
		L36,207.312l46.424,46.424c-11.224,21.16-7.944,48.056,9.856,65.856l84.128,84.128c17.792,17.792,44.696,21.072,65.856,9.856
		l46.432,46.432L275.24,473.448z M300,448.688l-44.704-44.704c0.096-0.096,0.2-0.176,0.296-0.264l8.408-8.408L308.688,440
		L300,448.688z"/>
	<path style="fill:#333333;" d="M408,184c-48.52,0-88,39.48-88,88v56h176v-56C496,223.48,456.52,184,408,184z M480,312h-72h-72v-40
		c0-39.704,32.296-72,72-72s72,32.296,72,72V312z"/>
	<path style="fill:#333333;" d="M480,112c0-11.32-2.848-22.448-8-32.552V0H344v79.448c-5.152,10.104-8,21.232-8,32.552
		c0,39.704,32.296,72,72,72S480,151.704,480,112z M360,16h96v56h-96V16z M408,168c-30.872,0-56-25.128-56-56
		c0-8.288,1.872-16.496,5.456-24h101.096c3.576,7.504,5.448,15.712,5.448,24C464,142.872,438.872,168,408,168z"/>
	<circle style="fill:#333333;" cx="408" cy="272" r="8"/>
	<circle style="fill:#333333;" cx="408" cy="304" r="8"/>
	<path style="fill:#333333;" d="M192,128h-64v-3.56l46.664-29.168C185.52,88.488,192,76.8,192,64c0-22.056-17.944-40-40-40
		s-40,17.944-40,40h16c0-13.232,10.768-24,24-24s24,10.768,24,24c0,7.24-3.664,13.856-9.816,17.696L112,115.56V144h80V128z"/>
	<path style="fill:#333333;" d="M248,104v40h16v-40h24V88h-24V24h-16v5.704L201.56,104H248z M248,88h-17.56L248,59.896V88z"/>
</g>
<rect x="344" y="48" style="fill:#F9BA48;" width="128" height="40"/>
<g>
</g>
<g>
</g>
<g>
</g>
<g>
</g>
<g>
</g>
<g>
</g>
<g>
</g>
<g>
</g>
<g>
</g>
<g>
</g>
<g>
</g>
<g>
</g>
<g>
</g>
<g>
</g>
<g>
</g>
</svg>
