<svg width="1440" height="720" viewBox="0 0 1440 720" fill="none" xmlns="http://www.w3.org/2000/svg">
<rect width="1440" height="720" fill="url(#paint0_linear_418_2)"/>
<path d="M71.2 104.88C67.04 104.88 63.6 108.32 63.6 112.48C63.6 116.64 67.04 120.08 71.2 120.08C75.36 120.08 78.8 116.64 78.8 112.48C78.8 108.32 75.36 104.88 71.2 104.88ZM66.4 126L64 146V162H78.4V146L76 126H66.4ZM100.022 133.68V123.76H120.022V111.6H100.022V102.32H122.022V90H87.2219V146H122.422V133.68H100.022ZM140.604 117.68C140.604 116.24 141.884 115.44 143.964 115.44C146.604 115.44 148.204 116.88 149.324 118.96L159.564 113.44C156.204 107.76 150.444 104.88 143.964 104.88C135.644 104.88 128.284 109.28 128.284 118C128.284 131.84 147.964 129.52 147.964 133.92C147.964 135.52 146.524 136.4 143.644 136.4C140.124 136.4 137.884 134.72 136.844 131.68L126.444 137.6C129.564 144.08 135.644 147.12 143.644 147.12C152.284 147.12 160.284 143.2 160.284 134C160.284 119.2 140.604 122.24 140.604 117.68ZM190.586 104.88C185.226 104.88 181.306 106.72 178.666 109.76V106H166.666V162H178.666V142.24C181.306 145.28 185.226 147.12 190.586 147.12C201.066 147.12 209.706 137.92 209.706 126C209.706 114.08 201.066 104.88 190.586 104.88ZM188.186 135.76C182.666 135.76 178.666 132 178.666 126C178.666 120 182.666 116.24 188.186 116.24C193.706 116.24 197.706 120 197.706 126C197.706 132 193.706 135.76 188.186 135.76ZM227.229 130.8H255.629C255.949 129.28 256.109 127.68 256.109 126C256.109 113.92 247.469 104.88 235.789 104.88C223.149 104.88 214.509 114.08 214.509 126C214.509 137.92 222.989 147.12 236.669 147.12C244.269 147.12 250.189 144.32 254.109 138.88L244.509 133.36C242.909 135.12 240.109 136.4 236.829 136.4C232.429 136.4 228.749 134.96 227.229 130.8ZM226.989 121.84C228.109 117.76 231.149 115.52 235.709 115.52C239.309 115.52 242.909 117.2 244.189 121.84H226.989ZM274.916 113.12V106H262.916V146H274.916V127.92C274.916 120 281.956 118 286.916 118.8V105.2C281.876 105.2 276.516 107.76 274.916 113.12ZM302.073 130.8H330.473C330.793 129.28 330.953 127.68 330.953 126C330.953 113.92 322.313 104.88 310.633 104.88C297.993 104.88 289.353 114.08 289.353 126C289.353 137.92 297.833 147.12 311.513 147.12C319.113 147.12 325.033 144.32 328.953 138.88L319.353 133.36C317.753 135.12 314.953 136.4 311.673 136.4C307.273 136.4 303.593 134.96 302.073 130.8ZM301.833 121.84C302.953 117.76 305.993 115.52 310.553 115.52C314.153 115.52 317.753 117.2 319.033 121.84H301.833ZM339.759 126H349.359L351.759 106V90H337.359V106L339.759 126ZM344.559 147.12C348.719 147.12 352.159 143.68 352.159 139.52C352.159 135.36 348.719 131.92 344.559 131.92C340.399 131.92 336.959 135.36 336.959 139.52C336.959 143.68 340.399 147.12 344.559 147.12Z" fill="white"/>
<path d="M72.2 224.56C78.28 224.56 82.6 221.36 82.6 215.96C82.6 210.04 77.84 208.56 73.6 207.28C69.24 205.96 68.56 205.08 68.56 203.8C68.56 202.68 69.56 201.68 71.56 201.68C74.12 201.68 75.44 202.92 76.4 204.92L81.8 201.76C79.76 197.64 76.16 195.44 71.56 195.44C66.72 195.44 62.16 198.56 62.16 203.96C62.16 209.32 66.24 211.32 70.4 212.48C74.6 213.64 76.2 214.32 76.2 216.04C76.2 217.12 75.44 218.32 72.4 218.32C69.24 218.32 67.52 216.76 66.52 214.44L61 217.64C62.56 221.76 66.32 224.56 72.2 224.56ZM91.5444 216.4H105.744C105.904 215.64 105.984 214.84 105.984 214C105.984 207.96 101.664 203.44 95.8244 203.44C89.5044 203.44 85.1844 208.04 85.1844 214C85.1844 219.96 89.4244 224.56 96.2644 224.56C100.064 224.56 103.024 223.16 104.984 220.44L100.184 217.68C99.3844 218.56 97.9844 219.2 96.3444 219.2C94.1444 219.2 92.3044 218.48 91.5444 216.4ZM91.4244 211.92C91.9844 209.88 93.5044 208.76 95.7844 208.76C97.5844 208.76 99.3844 209.6 100.024 211.92H91.4244ZM115.388 207.56V204H109.388V224H115.388V214.96C115.388 211 118.908 210 121.388 210.4V203.6C118.868 203.6 116.188 204.88 115.388 207.56ZM136.952 204L132.792 216.68L128.632 204H121.992L129.392 224H136.192L143.592 204H136.952ZM148.794 202.24C150.754 202.24 152.394 200.6 152.394 198.64C152.394 196.68 150.754 195.04 148.794 195.04C146.834 195.04 145.194 196.68 145.194 198.64C145.194 200.6 146.834 202.24 148.794 202.24ZM145.794 224H151.794V204H145.794V224ZM165.784 224.56C169.704 224.56 173.104 222.52 174.824 219.4L169.584 216.4C168.944 217.8 167.464 218.64 165.704 218.64C163.104 218.64 161.184 216.76 161.184 214C161.184 211.24 163.104 209.36 165.704 209.36C167.464 209.36 168.904 210.2 169.584 211.6L174.824 208.56C173.104 205.48 169.664 203.44 165.784 203.44C159.704 203.44 155.184 208.04 155.184 214C155.184 219.96 159.704 224.56 165.784 224.56ZM180.239 202.24C182.199 202.24 183.839 200.6 183.839 198.64C183.839 196.68 182.199 195.04 180.239 195.04C178.279 195.04 176.639 196.68 176.639 198.64C176.639 200.6 178.279 202.24 180.239 202.24ZM177.239 224H183.239V204H177.239V224ZM197.23 224.56C203.11 224.56 207.83 219.96 207.83 214C207.83 208.04 203.11 203.44 197.23 203.44C191.35 203.44 186.63 208.04 186.63 214C186.63 219.96 191.35 224.56 197.23 224.56ZM197.23 218.72C194.63 218.72 192.63 216.84 192.63 214C192.63 211.16 194.63 209.28 197.23 209.28C199.83 209.28 201.83 211.16 201.83 214C201.83 216.84 199.83 218.72 197.23 218.72ZM230.823 224.56C234.743 224.56 238.143 222.52 239.863 219.4L234.623 216.4C233.983 217.8 232.503 218.64 230.743 218.64C228.143 218.64 226.223 216.76 226.223 214C226.223 211.24 228.143 209.36 230.743 209.36C232.503 209.36 233.943 210.2 234.623 211.6L239.863 208.56C238.143 205.48 234.703 203.44 230.823 203.44C224.743 203.44 220.223 208.04 220.223 214C220.223 219.96 224.743 224.56 230.823 224.56ZM256.408 204V205.88C255.088 204.36 253.128 203.44 250.448 203.44C245.208 203.44 240.888 208.04 240.888 214C240.888 219.96 245.208 224.56 250.448 224.56C253.128 224.56 255.088 223.64 256.408 222.12V224H262.408V204H256.408ZM251.648 218.88C248.888 218.88 246.888 217 246.888 214C246.888 211 248.888 209.12 251.648 209.12C254.408 209.12 256.408 211 256.408 214C256.408 217 254.408 218.88 251.648 218.88ZM278.529 203.44C275.889 203.44 273.889 204.4 272.809 205.88V204H266.809V224H272.809V213.08C272.809 210.24 274.329 208.96 276.529 208.96C278.449 208.96 280.009 210.12 280.009 212.6V224H286.009V211.72C286.009 206.32 282.569 203.44 278.529 203.44ZM299.73 224.56C303.65 224.56 307.05 222.52 308.77 219.4L303.53 216.4C302.89 217.8 301.41 218.64 299.65 218.64C297.05 218.64 295.13 216.76 295.13 214C295.13 211.24 297.05 209.36 299.65 209.36C301.41 209.36 302.85 210.2 303.53 211.6L308.77 208.56C307.05 205.48 303.61 203.44 299.73 203.44C293.65 203.44 289.13 208.04 289.13 214C289.13 219.96 293.65 224.56 299.73 224.56ZM316.154 216.4H330.354C330.514 215.64 330.594 214.84 330.594 214C330.594 207.96 326.274 203.44 320.434 203.44C314.114 203.44 309.794 208.04 309.794 214C309.794 219.96 314.034 224.56 320.874 224.56C324.674 224.56 327.634 223.16 329.594 220.44L324.794 217.68C323.994 218.56 322.594 219.2 320.954 219.2C318.754 219.2 316.914 218.48 316.154 216.4ZM316.034 211.92C316.594 209.88 318.114 208.76 320.394 208.76C322.194 208.76 323.994 209.6 324.634 211.92H316.034ZM333.997 224H339.997V194.8H333.997V224ZM358.908 204V205.88C357.588 204.36 355.628 203.44 352.948 203.44C347.708 203.44 343.388 208.04 343.388 214C343.388 219.96 347.708 224.56 352.948 224.56C355.628 224.56 357.588 223.64 358.908 222.12V224H364.908V204H358.908ZM354.148 218.88C351.388 218.88 349.388 217 349.388 214C349.388 211 351.388 209.12 354.148 209.12C356.908 209.12 358.908 211 358.908 214C358.908 217 356.908 218.88 354.148 218.88ZM383.829 196V205.88C382.509 204.36 380.549 203.44 377.869 203.44C372.629 203.44 368.309 208.04 368.309 214C368.309 219.96 372.629 224.56 377.869 224.56C380.549 224.56 382.509 223.64 383.829 222.12V224H389.829V196H383.829ZM379.069 218.88C376.309 218.88 374.309 217 374.309 214C374.309 211 376.309 209.12 379.069 209.12C381.829 209.12 383.829 211 383.829 214C383.829 217 381.829 218.88 379.069 218.88ZM403.831 224.56C409.711 224.56 414.431 219.96 414.431 214C414.431 208.04 409.711 203.44 403.831 203.44C397.951 203.44 393.231 208.04 393.231 214C393.231 219.96 397.951 224.56 403.831 224.56ZM403.831 218.72C401.231 218.72 399.231 216.84 399.231 214C399.231 211.16 401.231 209.28 403.831 209.28C406.431 209.28 408.431 211.16 408.431 214C408.431 216.84 406.431 218.72 403.831 218.72ZM439.785 203.44C437.105 203.44 435.145 204.36 433.825 205.88V204H427.825V232H433.825V222.12C435.145 223.64 437.105 224.56 439.785 224.56C445.025 224.56 449.345 219.96 449.345 214C449.345 208.04 445.025 203.44 439.785 203.44ZM438.585 218.88C435.825 218.88 433.825 217 433.825 214C433.825 211 435.825 209.12 438.585 209.12C441.345 209.12 443.345 211 443.345 214C443.345 217 441.345 218.88 438.585 218.88ZM462.347 224.56C468.227 224.56 472.947 219.96 472.947 214C472.947 208.04 468.227 203.44 462.347 203.44C456.467 203.44 451.747 208.04 451.747 214C451.747 219.96 456.467 224.56 462.347 224.56ZM462.347 218.72C459.747 218.72 457.747 216.84 457.747 214C457.747 211.16 459.747 209.28 462.347 209.28C464.947 209.28 466.947 211.16 466.947 214C466.947 216.84 464.947 218.72 462.347 218.72ZM482.341 207.56V204H476.341V224H482.341V214.96C482.341 211 485.861 210 488.341 210.4V203.6C485.821 203.6 483.141 204.88 482.341 207.56ZM84.6 252.44C81.76 252.44 79.92 253.48 78.8 255.08C77.68 253.4 75.92 252.44 73.56 252.44C70.88 252.44 69.12 253.48 68.2 254.84V253H62.2V273H68.2V261.72C68.2 259.36 69.32 257.96 71.32 257.96C73.24 257.96 74.2 259.24 74.2 261.24V273H80.2V261.72C80.2 259.36 81.32 257.96 83.32 257.96C85.24 257.96 86.2 259.24 86.2 261.24V273H92.2V260.72C92.2 255.72 89.2 252.44 84.6 252.44ZM105.902 273.56C111.782 273.56 116.502 268.96 116.502 263C116.502 257.04 111.782 252.44 105.902 252.44C100.022 252.44 95.3016 257.04 95.3016 263C95.3016 268.96 100.022 273.56 105.902 273.56ZM105.902 267.72C103.302 267.72 101.302 265.84 101.302 263C101.302 260.16 103.302 258.28 105.902 258.28C108.502 258.28 110.502 260.16 110.502 263C110.502 265.84 108.502 267.72 105.902 267.72ZM131.225 258.76V253H127.105V247.4L121.105 249.2V253H117.905V258.76H121.105V265.84C121.105 271.44 123.385 273.8 131.225 273V267.56C128.585 267.72 127.105 267.56 127.105 265.84V258.76H131.225ZM137.622 251.24C139.582 251.24 141.222 249.6 141.222 247.64C141.222 245.68 139.582 244.04 137.622 244.04C135.662 244.04 134.022 245.68 134.022 247.64C134.022 249.6 135.662 251.24 137.622 251.24ZM134.622 273H140.622V253H134.622V273ZM157.773 253L153.613 265.68L149.453 253H142.812L150.213 273H157.013L164.413 253H157.773ZM175.433 273.56C181.313 273.56 186.033 268.96 186.033 263C186.033 257.04 181.313 252.44 175.433 252.44C169.553 252.44 164.833 257.04 164.833 263C164.833 268.96 169.553 273.56 175.433 273.56ZM175.433 267.72C172.833 267.72 170.833 265.84 170.833 263C170.833 260.16 172.833 258.28 175.433 258.28C178.033 258.28 180.033 260.16 180.033 263C180.033 265.84 178.033 267.72 175.433 267.72ZM213.947 245V254.88C212.627 253.36 210.667 252.44 207.987 252.44C202.747 252.44 198.427 257.04 198.427 263C198.427 268.96 202.747 273.56 207.987 273.56C210.667 273.56 212.627 272.64 213.947 271.12V273H219.947V245H213.947ZM209.187 267.88C206.427 267.88 204.427 266 204.427 263C204.427 260 206.427 258.12 209.187 258.12C211.947 258.12 213.947 260 213.947 263C213.947 266 211.947 267.88 209.187 267.88ZM229.708 265.4H243.908C244.068 264.64 244.148 263.84 244.148 263C244.148 256.96 239.828 252.44 233.988 252.44C227.668 252.44 223.348 257.04 223.348 263C223.348 268.96 227.588 273.56 234.428 273.56C238.228 273.56 241.188 272.16 243.148 269.44L238.348 266.68C237.548 267.56 236.148 268.2 234.508 268.2C232.308 268.2 230.468 267.48 229.708 265.4ZM229.588 260.92C230.148 258.88 231.668 257.76 233.948 257.76C235.748 257.76 237.548 258.6 238.188 260.92H229.588ZM269.512 252.44C266.832 252.44 264.872 253.36 263.552 254.88V253H257.552V281H263.552V271.12C264.872 272.64 266.832 273.56 269.512 273.56C274.752 273.56 279.072 268.96 279.072 263C279.072 257.04 274.752 252.44 269.512 252.44ZM268.312 267.88C265.552 267.88 263.552 266 263.552 263C263.552 260 265.552 258.12 268.312 258.12C271.072 258.12 273.072 260 273.072 263C273.072 266 271.072 267.88 268.312 267.88ZM296.993 253V254.88C295.673 253.36 293.713 252.44 291.033 252.44C285.793 252.44 281.473 257.04 281.473 263C281.473 268.96 285.793 273.56 291.033 273.56C293.713 273.56 295.673 272.64 296.993 271.12V273H302.993V253H296.993ZM292.233 267.88C289.473 267.88 287.473 266 287.473 263C287.473 260 289.473 258.12 292.233 258.12C294.993 258.12 296.993 260 296.993 263C296.993 266 294.993 267.88 292.233 267.88ZM322.075 253V255.04C320.755 253.4 318.835 252.44 316.235 252.44C310.555 252.44 306.395 257.08 306.395 262.6C306.395 268.12 310.555 272.76 316.235 272.76C318.835 272.76 320.755 271.8 322.075 270.16V272C322.075 274.84 320.355 276.28 317.555 276.28C314.915 276.28 313.755 275.16 312.995 273.76L307.875 276.72C309.715 280 313.195 281.56 317.355 281.56C322.675 281.56 327.915 278.72 327.915 272V253H322.075ZM317.235 267.24C314.395 267.24 312.395 265.36 312.395 262.6C312.395 259.84 314.395 257.96 317.235 257.96C320.075 257.96 322.075 259.84 322.075 262.6C322.075 265.36 320.075 267.24 317.235 267.24ZM341.917 273.56C347.797 273.56 352.517 268.96 352.517 263C352.517 257.04 347.797 252.44 341.917 252.44C336.037 252.44 331.317 257.04 331.317 263C331.317 268.96 336.037 273.56 341.917 273.56ZM341.917 267.72C339.317 267.72 337.317 265.84 337.317 263C337.317 260.16 339.317 258.28 341.917 258.28C344.517 258.28 346.517 260.16 346.517 263C346.517 265.84 344.517 267.72 341.917 267.72Z" fill="white"/>
<defs>
<linearGradient id="paint0_linear_418_2" x1="319" y1="11" x2="1158" y2="623" gradientUnits="userSpaceOnUse">
<stop stop-color="#073677"/>
<stop offset="0.502819" stop-color="#558EDD"/>
<stop offset="1" stop-color="#235191"/>
</linearGradient>
</defs>
</svg>
